<svg xmlns="http://www.w3.org/2000/svg" xmlns:xlink="http://www.w3.org/1999/xlink" width="500" zoomAndPan="magnify" viewBox="0 0 375 374.999991" height="500" preserveAspectRatio="xMidYMid meet" version="1.0"><defs><clipPath id="dc86aa1150"><path d="M 13.296875 0 L 362 0 L 362 375 L 13.296875 375 Z M 13.296875 0 " clip-rule="nonzero"/></clipPath><clipPath id="d020908562"><path d="M 131.402344 113.566406 L 243.902344 113.566406 L 243.902344 261.316406 L 131.402344 261.316406 Z M 131.402344 113.566406 " clip-rule="nonzero"/></clipPath></defs><g clip-path="url(#dc86aa1150)"><path fill="#ffffff" d="M 200.886719 361.605469 L 200.886719 13.394531 C 200.886719 6 194.886719 0 187.496094 0 C 180.101562 0 174.101562 6 174.101562 13.394531 L 174.101562 361.605469 C 174.101562 369 180.101562 375 187.496094 375 C 194.886719 375 200.886719 369 200.886719 361.605469 Z M 254.457031 294.644531 L 254.457031 80.355469 C 254.457031 72.964844 248.457031 66.964844 241.066406 66.964844 C 233.671875 66.964844 227.671875 72.964844 227.671875 80.355469 L 227.671875 294.644531 C 227.671875 302.035156 233.671875 308.035156 241.066406 308.035156 C 248.457031 308.035156 254.457031 302.035156 254.457031 294.644531 Z M 147.316406 294.644531 L 147.316406 80.355469 C 147.316406 72.964844 141.316406 66.964844 133.921875 66.964844 C 126.53125 66.964844 120.53125 72.964844 120.53125 80.355469 L 120.53125 294.644531 C 120.53125 302.035156 126.53125 308.035156 133.921875 308.035156 C 141.316406 308.035156 147.316406 302.035156 147.316406 294.644531 Z M 308.03125 254.464844 L 308.03125 120.535156 C 308.03125 113.144531 302.03125 107.144531 294.636719 107.144531 C 287.246094 107.144531 281.246094 113.144531 281.246094 120.535156 L 281.246094 254.464844 C 281.246094 261.855469 287.246094 267.855469 294.636719 267.855469 C 302.03125 267.855469 308.03125 261.855469 308.03125 254.464844 Z M 93.746094 254.464844 L 93.746094 120.535156 C 93.746094 113.144531 87.746094 107.144531 80.351562 107.144531 C 72.957031 107.144531 66.957031 113.144531 66.957031 120.535156 L 66.957031 254.464844 C 66.957031 261.855469 72.957031 267.855469 80.351562 267.855469 C 87.746094 267.855469 93.746094 261.855469 93.746094 254.464844 Z M 40.171875 227.679688 L 40.171875 147.320312 C 40.171875 139.929688 34.171875 133.929688 26.78125 133.929688 C 19.386719 133.929688 13.386719 139.929688 13.386719 147.320312 L 13.386719 227.679688 C 13.386719 235.070312 19.386719 241.070312 26.78125 241.070312 C 34.171875 241.070312 40.171875 235.070312 40.171875 227.679688 Z M 361.601562 227.679688 L 361.601562 147.320312 C 361.601562 139.929688 355.601562 133.929688 348.207031 133.929688 C 340.816406 133.929688 334.816406 139.929688 334.816406 147.320312 L 334.816406 227.679688 C 334.816406 235.070312 340.816406 241.070312 348.207031 241.070312 C 355.601562 241.070312 361.601562 235.070312 361.601562 227.679688 Z M 361.601562 227.679688 " fill-opacity="1" fill-rule="evenodd"/></g><g clip-path="url(#d020908562)"><path fill="#ff3131" d="M 219.613281 177.363281 L 155.429688 177.363281 L 155.429688 162.28125 C 155.441406 161.730469 155.738281 152.570312 159.960938 143.757812 C 165.367188 132.480469 174.378906 127 187.511719 127 C 200.664062 127 209.683594 132.359375 215.085938 143.390625 C 219.316406 152.039062 219.605469 161.019531 219.613281 161.460938 Z M 175.28125 234.121094 L 181.945312 222.585938 C 178.1875 220.585938 175.628906 216.632812 175.628906 212.082031 C 175.628906 205.523438 180.949219 200.203125 187.511719 200.203125 C 194.070312 200.203125 199.390625 205.523438 199.390625 212.082031 C 199.390625 216.632812 196.835938 220.585938 193.078125 222.585938 L 199.738281 234.121094 Z M 233.1875 177.363281 L 233.054688 177.363281 L 233.054688 161.335938 C 233.050781 160.855469 232.867188 149.433594 227.386719 137.949219 C 222.074219 126.820312 210.847656 113.558594 187.511719 113.558594 C 164.144531 113.558594 152.921875 127.066406 147.625 138.402344 C 142.164062 150.078125 141.988281 161.664062 141.988281 162.152344 L 141.988281 177.363281 L 141.832031 177.363281 C 136.1875 177.363281 131.570312 181.984375 131.570312 187.632812 L 131.570312 251.15625 C 131.570312 256.804688 136.1875 261.425781 141.832031 261.425781 L 233.1875 261.425781 C 238.832031 261.425781 243.453125 256.804688 243.453125 251.15625 L 243.453125 187.632812 C 243.453125 181.984375 238.832031 177.363281 233.1875 177.363281 " fill-opacity="1" fill-rule="nonzero"/></g></svg>