<svg xmlns="http://www.w3.org/2000/svg" xmlns:xlink="http://www.w3.org/1999/xlink" width="500" zoomAndPan="magnify" viewBox="0 0 375 374.999991" height="500" preserveAspectRatio="xMidYMid meet" version="1.0"><defs><clipPath id="f39a481884"><path d="M 13.296875 0 L 362 0 L 362 375 L 13.296875 375 Z M 13.296875 0 " clip-rule="nonzero"/></clipPath></defs><g clip-path="url(#f39a481884)"><path fill="#ffffff" d="M 200.886719 361.605469 L 200.886719 13.394531 C 200.886719 6 194.886719 0 187.496094 0 C 180.101562 0 174.101562 6 174.101562 13.394531 L 174.101562 361.605469 C 174.101562 369 180.101562 375 187.496094 375 C 194.886719 375 200.886719 369 200.886719 361.605469 Z M 254.457031 294.644531 L 254.457031 80.355469 C 254.457031 72.964844 248.457031 66.964844 241.066406 66.964844 C 233.671875 66.964844 227.671875 72.964844 227.671875 80.355469 L 227.671875 294.644531 C 227.671875 302.035156 233.671875 308.035156 241.066406 308.035156 C 248.457031 308.035156 254.457031 302.035156 254.457031 294.644531 Z M 147.316406 294.644531 L 147.316406 80.355469 C 147.316406 72.964844 141.316406 66.964844 133.921875 66.964844 C 126.53125 66.964844 120.53125 72.964844 120.53125 80.355469 L 120.53125 294.644531 C 120.53125 302.035156 126.53125 308.035156 133.921875 308.035156 C 141.316406 308.035156 147.316406 302.035156 147.316406 294.644531 Z M 308.03125 254.464844 L 308.03125 120.535156 C 308.03125 113.144531 302.03125 107.144531 294.636719 107.144531 C 287.246094 107.144531 281.246094 113.144531 281.246094 120.535156 L 281.246094 254.464844 C 281.246094 261.855469 287.246094 267.855469 294.636719 267.855469 C 302.03125 267.855469 308.03125 261.855469 308.03125 254.464844 Z M 93.746094 254.464844 L 93.746094 120.535156 C 93.746094 113.144531 87.746094 107.144531 80.351562 107.144531 C 72.957031 107.144531 66.957031 113.144531 66.957031 120.535156 L 66.957031 254.464844 C 66.957031 261.855469 72.957031 267.855469 80.351562 267.855469 C 87.746094 267.855469 93.746094 261.855469 93.746094 254.464844 Z M 40.171875 227.679688 L 40.171875 147.320312 C 40.171875 139.929688 34.171875 133.929688 26.78125 133.929688 C 19.386719 133.929688 13.386719 139.929688 13.386719 147.320312 L 13.386719 227.679688 C 13.386719 235.070312 19.386719 241.070312 26.78125 241.070312 C 34.171875 241.070312 40.171875 235.070312 40.171875 227.679688 Z M 361.601562 227.679688 L 361.601562 147.320312 C 361.601562 139.929688 355.601562 133.929688 348.207031 133.929688 C 340.816406 133.929688 334.816406 139.929688 334.816406 147.320312 L 334.816406 227.679688 C 334.816406 235.070312 340.816406 241.070312 348.207031 241.070312 C 355.601562 241.070312 361.601562 235.070312 361.601562 227.679688 Z M 361.601562 227.679688 " fill-opacity="1" fill-rule="evenodd"/></g></svg>