<svg xmlns="http://www.w3.org/2000/svg" xmlns:xlink="http://www.w3.org/1999/xlink" width="500" zoomAndPan="magnify" viewBox="0 0 375 374.999991" height="500" preserveAspectRatio="xMidYMid meet" version="1.0"><defs><clipPath id="e70b19905d"><path d="M 49.21875 0 L 325.96875 0 L 325.96875 375 L 49.21875 375 Z M 49.21875 0 " clip-rule="nonzero"/></clipPath><clipPath id="fc85d096cf"><path d="M 131.402344 113.566406 L 243.902344 113.566406 L 243.902344 261.316406 L 131.402344 261.316406 Z M 131.402344 113.566406 " clip-rule="nonzero"/></clipPath></defs><g clip-path="url(#e70b19905d)"><path fill="#ffffff" d="M 82.714844 12.558594 C 71.0625 12.558594 61.582031 22.039062 61.582031 33.691406 L 61.582031 341.292969 C 61.582031 352.945312 71.0625 362.421875 82.714844 362.421875 L 292.269531 362.421875 C 303.921875 362.421875 313.398438 352.945312 313.398438 341.292969 L 313.398438 82.4375 L 243.523438 12.558594 Z M 292.269531 374.808594 L 82.714844 374.808594 C 64.234375 374.808594 49.195312 359.773438 49.195312 341.292969 L 49.195312 33.691406 C 49.195312 15.210938 64.234375 0.171875 82.714844 0.171875 L 248.652344 0.171875 L 325.785156 77.308594 L 325.785156 341.292969 C 325.785156 359.773438 310.75 374.808594 292.269531 374.808594 " fill-opacity="1" fill-rule="nonzero"/></g><path fill="#ffffff" d="M 319.59375 86.066406 L 267.1875 86.066406 C 252.140625 86.066406 239.894531 73.820312 239.894531 58.773438 L 239.894531 6.367188 L 252.28125 6.367188 L 252.28125 58.773438 C 252.28125 66.992188 258.96875 73.679688 267.1875 73.679688 L 319.59375 73.679688 L 319.59375 86.066406 " fill-opacity="1" fill-rule="nonzero"/><path fill="#ffffff" d="M 285.40625 120.613281 L 89.578125 120.613281 C 87.753906 120.613281 86.277344 119.136719 86.277344 117.3125 C 86.277344 115.488281 87.753906 114.007812 89.578125 114.007812 L 285.40625 114.007812 C 287.226562 114.007812 288.707031 115.488281 288.707031 117.3125 C 288.707031 119.136719 287.226562 120.613281 285.40625 120.613281 " fill-opacity="1" fill-rule="nonzero"/><path fill="#ffffff" d="M 161.902344 92.34375 L 89.578125 92.34375 C 87.753906 92.34375 86.277344 90.867188 86.277344 89.039062 C 86.277344 87.21875 87.753906 85.738281 89.578125 85.738281 L 161.902344 85.738281 C 163.726562 85.738281 165.207031 87.21875 165.207031 89.039062 C 165.207031 90.867188 163.726562 92.34375 161.902344 92.34375 " fill-opacity="1" fill-rule="nonzero"/><path fill="#ffffff" d="M 161.902344 64.074219 L 89.578125 64.074219 C 87.753906 64.074219 86.277344 62.59375 86.277344 60.769531 C 86.277344 58.945312 87.753906 57.464844 89.578125 57.464844 L 161.902344 57.464844 C 163.726562 57.464844 165.207031 58.945312 165.207031 60.769531 C 165.207031 62.59375 163.726562 64.074219 161.902344 64.074219 " fill-opacity="1" fill-rule="nonzero"/><path fill="#ffffff" d="M 285.40625 146.777344 L 89.578125 146.777344 C 87.753906 146.777344 86.277344 145.296875 86.277344 143.472656 C 86.277344 141.648438 87.753906 140.167969 89.578125 140.167969 L 285.40625 140.167969 C 287.226562 140.167969 288.707031 141.648438 288.707031 143.472656 C 288.707031 145.296875 287.226562 146.777344 285.40625 146.777344 " fill-opacity="1" fill-rule="nonzero"/><path fill="#ffffff" d="M 285.40625 172.9375 L 89.578125 172.9375 C 87.753906 172.9375 86.277344 171.457031 86.277344 169.632812 C 86.277344 167.808594 87.753906 166.332031 89.578125 166.332031 L 285.40625 166.332031 C 287.226562 166.332031 288.707031 167.808594 288.707031 169.632812 C 288.707031 171.457031 287.226562 172.9375 285.40625 172.9375 " fill-opacity="1" fill-rule="nonzero"/><path fill="#ffffff" d="M 285.40625 199.09375 L 89.578125 199.09375 C 87.753906 199.09375 86.277344 197.617188 86.277344 195.792969 C 86.277344 193.96875 87.753906 192.488281 89.578125 192.488281 L 285.40625 192.488281 C 287.226562 192.488281 288.707031 193.96875 288.707031 195.792969 C 288.707031 197.617188 287.226562 199.09375 285.40625 199.09375 " fill-opacity="1" fill-rule="nonzero"/><path fill="#ffffff" d="M 285.40625 225.257812 L 89.578125 225.257812 C 87.753906 225.257812 86.277344 223.777344 86.277344 221.953125 C 86.277344 220.128906 87.753906 218.648438 89.578125 218.648438 L 285.40625 218.648438 C 287.226562 218.648438 288.707031 220.128906 288.707031 221.953125 C 288.707031 223.777344 287.226562 225.257812 285.40625 225.257812 " fill-opacity="1" fill-rule="nonzero"/><path fill="#ffffff" d="M 285.40625 251.414062 L 89.578125 251.414062 C 87.753906 251.414062 86.277344 249.9375 86.277344 248.113281 C 86.277344 246.289062 87.753906 244.808594 89.578125 244.808594 L 285.40625 244.808594 C 287.226562 244.808594 288.707031 246.289062 288.707031 248.113281 C 288.707031 249.9375 287.226562 251.414062 285.40625 251.414062 " fill-opacity="1" fill-rule="nonzero"/><path fill="#ffffff" d="M 285.40625 277.574219 L 89.578125 277.574219 C 87.753906 277.574219 86.277344 276.09375 86.277344 274.273438 C 86.277344 272.445312 87.753906 270.96875 89.578125 270.96875 L 285.40625 270.96875 C 287.226562 270.96875 288.707031 272.445312 288.707031 274.273438 C 288.707031 276.09375 287.226562 277.574219 285.40625 277.574219 " fill-opacity="1" fill-rule="nonzero"/><path fill="#ffffff" d="M 285.40625 303.734375 L 215.542969 303.734375 C 213.71875 303.734375 212.242188 302.257812 212.242188 300.429688 C 212.242188 298.609375 213.71875 297.128906 215.542969 297.128906 L 285.40625 297.128906 C 287.226562 297.128906 288.707031 298.609375 288.707031 300.429688 C 288.707031 302.257812 287.226562 303.734375 285.40625 303.734375 " fill-opacity="1" fill-rule="nonzero"/><g clip-path="url(#fc85d096cf)"><path fill="#ff3131" d="M 219.613281 177.363281 L 155.429688 177.363281 L 155.429688 162.28125 C 155.441406 161.730469 155.738281 152.570312 159.960938 143.757812 C 165.367188 132.480469 174.378906 127 187.511719 127 C 200.664062 127 209.683594 132.359375 215.085938 143.390625 C 219.316406 152.039062 219.605469 161.019531 219.613281 161.460938 Z M 175.28125 234.121094 L 181.945312 222.585938 C 178.1875 220.585938 175.628906 216.632812 175.628906 212.082031 C 175.628906 205.523438 180.949219 200.203125 187.511719 200.203125 C 194.070312 200.203125 199.390625 205.523438 199.390625 212.082031 C 199.390625 216.632812 196.835938 220.585938 193.078125 222.585938 L 199.738281 234.121094 Z M 233.1875 177.363281 L 233.054688 177.363281 L 233.054688 161.335938 C 233.050781 160.855469 232.867188 149.433594 227.386719 137.949219 C 222.074219 126.820312 210.847656 113.558594 187.511719 113.558594 C 164.144531 113.558594 152.921875 127.066406 147.625 138.402344 C 142.164062 150.078125 141.988281 161.664062 141.988281 162.152344 L 141.988281 177.363281 L 141.832031 177.363281 C 136.1875 177.363281 131.570312 181.984375 131.570312 187.632812 L 131.570312 251.15625 C 131.570312 256.804688 136.1875 261.425781 141.832031 261.425781 L 233.1875 261.425781 C 238.832031 261.425781 243.453125 256.804688 243.453125 251.15625 L 243.453125 187.632812 C 243.453125 181.984375 238.832031 177.363281 233.1875 177.363281 " fill-opacity="1" fill-rule="nonzero"/></g></svg>