<svg xmlns="http://www.w3.org/2000/svg" xmlns:xlink="http://www.w3.org/1999/xlink" width="500" zoomAndPan="magnify" viewBox="0 0 375 374.999991" height="500" preserveAspectRatio="xMidYMid meet" version="1.0"><defs><clipPath id="18f22cfb27"><path d="M 0 31.875 L 375 31.875 L 375 121 L 0 121 Z M 0 31.875 " clip-rule="nonzero"/></clipPath><clipPath id="e4aaae2c3a"><path d="M 0 83.90625 L 375 83.90625 L 375 343.121094 L 0 343.121094 Z M 0 83.90625 " clip-rule="nonzero"/></clipPath></defs><g clip-path="url(#18f22cfb27)"><path fill="#5eacde" d="M 0 120.316406 L 0 65.621094 C 0 46.984375 15.109375 31.875 33.746094 31.875 L 106.238281 31.875 C 113.382812 31.875 120.339844 34.144531 126.113281 38.351562 L 157.675781 61.355469 L 341.253906 61.355469 C 359.890625 61.355469 375 76.464844 375 95.101562 L 375 120.316406 L 0 120.316406 " fill-opacity="1" fill-rule="nonzero"/></g><g clip-path="url(#e4aaae2c3a)"><path fill="#64c5fa" d="M 341.253906 83.980469 L 33.746094 83.980469 C 15.109375 83.980469 0 99.085938 0 117.722656 L 0 309.375 C 0 328.011719 15.109375 343.121094 33.746094 343.121094 L 341.253906 343.121094 C 359.890625 343.121094 375 328.011719 375 309.375 L 375 117.722656 C 375 99.085938 359.890625 83.980469 341.253906 83.980469 " fill-opacity="1" fill-rule="nonzero"/></g></svg>