<svg xmlns="http://www.w3.org/2000/svg" xmlns:xlink="http://www.w3.org/1999/xlink" width="500" zoomAndPan="magnify" viewBox="0 0 375 374.999991" height="500" preserveAspectRatio="xMidYMid meet" version="1.0"><defs><clipPath id="579f6ed254"><path d="M 0 31.875 L 375 31.875 L 375 121 L 0 121 Z M 0 31.875 " clip-rule="nonzero"/></clipPath><clipPath id="4cb831d1b1"><path d="M 0 83.90625 L 375 83.90625 L 375 343.121094 L 0 343.121094 Z M 0 83.90625 " clip-rule="nonzero"/></clipPath><clipPath id="359cd3b3ea"><path d="M 130.59375 140.203125 L 244.59375 140.203125 L 244.59375 290.203125 L 130.59375 290.203125 Z M 130.59375 140.203125 " clip-rule="nonzero"/></clipPath></defs><g clip-path="url(#579f6ed254)"><path fill="#a6a6a6" d="M 0 120.316406 L 0 65.621094 C 0 46.984375 15.109375 31.875 33.746094 31.875 L 106.238281 31.875 C 113.382812 31.875 120.339844 34.144531 126.113281 38.351562 L 157.675781 61.355469 L 341.253906 61.355469 C 359.890625 61.355469 375 76.464844 375 95.101562 L 375 120.316406 L 0 120.316406 " fill-opacity="1" fill-rule="nonzero"/></g><g clip-path="url(#4cb831d1b1)"><path fill="#d9d9d9" d="M 341.253906 83.980469 L 33.746094 83.980469 C 15.109375 83.980469 0 99.085938 0 117.722656 L 0 309.375 C 0 328.011719 15.109375 343.121094 33.746094 343.121094 L 341.253906 343.121094 C 359.890625 343.121094 375 328.011719 375 309.375 L 375 117.722656 C 375 99.085938 359.890625 83.980469 341.253906 83.980469 " fill-opacity="1" fill-rule="nonzero"/></g><g clip-path="url(#359cd3b3ea)"><path fill="#ff3131" d="M 220.082031 204.925781 L 154.96875 204.925781 L 154.96875 189.621094 C 154.984375 189.0625 155.285156 179.773438 159.566406 170.832031 C 165.050781 159.390625 174.191406 153.832031 187.515625 153.832031 C 200.859375 153.832031 210.011719 159.269531 215.488281 170.457031 C 219.78125 179.230469 220.074219 188.34375 220.082031 188.789062 Z M 175.109375 262.503906 L 181.871094 250.800781 C 178.058594 248.777344 175.464844 244.765625 175.464844 240.148438 C 175.464844 233.492188 180.859375 228.09375 187.515625 228.09375 C 194.171875 228.09375 199.570312 233.492188 199.570312 240.148438 C 199.570312 244.765625 196.976562 248.777344 193.164062 250.800781 L 199.921875 262.503906 Z M 233.855469 204.925781 L 233.722656 204.925781 L 233.722656 188.664062 C 233.71875 188.175781 233.53125 176.589844 227.972656 164.941406 C 222.582031 153.648438 211.191406 140.191406 187.515625 140.191406 C 163.808594 140.191406 152.425781 153.898438 147.050781 165.398438 C 141.511719 177.242188 141.335938 189 141.332031 189.496094 L 141.332031 204.925781 L 141.175781 204.925781 C 135.445312 204.925781 130.761719 209.613281 130.761719 215.34375 L 130.761719 279.785156 C 130.761719 285.515625 135.445312 290.203125 141.175781 290.203125 L 233.855469 290.203125 C 239.582031 290.203125 244.269531 285.515625 244.269531 279.785156 L 244.269531 215.34375 C 244.269531 209.613281 239.582031 204.925781 233.855469 204.925781 " fill-opacity="1" fill-rule="nonzero"/></g></svg>