<svg xmlns="http://www.w3.org/2000/svg" xmlns:xlink="http://www.w3.org/1999/xlink" width="500" zoomAndPan="magnify" viewBox="0 0 375 374.999991" height="500" preserveAspectRatio="xMidYMid meet" version="1.0"><defs><clipPath id="4175d83460"><path d="M 1 102 L 374.25 102 L 374.25 274 L 1 274 Z M 1 102 " clip-rule="nonzero"/></clipPath><clipPath id="de001fc0b2"><path d="M 134.242188 117.304688 L 240.742188 117.304688 L 240.742188 257.554688 L 134.242188 257.554688 Z M 134.242188 117.304688 " clip-rule="nonzero"/></clipPath></defs><g clip-path="url(#4175d83460)"><path fill="#ffffff" d="M 294.105469 273.75 L 222.265625 273.75 C 221.621094 273.75 220.984375 273.6875 220.351562 273.5625 C 219.71875 273.4375 219.105469 273.25 218.511719 273.003906 C 217.914062 272.757812 217.347656 272.453125 216.8125 272.09375 C 216.277344 271.738281 215.78125 271.332031 215.324219 270.875 C 214.871094 270.417969 214.460938 269.921875 214.105469 269.386719 C 213.746094 268.851562 213.445312 268.285156 213.199219 267.691406 C 212.949219 267.09375 212.765625 266.480469 212.640625 265.847656 C 212.511719 265.214844 212.449219 264.578125 212.449219 263.933594 C 212.449219 263.289062 212.511719 262.648438 212.640625 262.019531 C 212.765625 261.386719 212.949219 260.773438 213.199219 260.175781 C 213.445312 259.582031 213.746094 259.015625 214.105469 258.480469 C 214.460938 257.945312 214.871094 257.449219 215.324219 256.992188 C 215.78125 256.535156 216.277344 256.128906 216.8125 255.769531 C 217.347656 255.414062 217.914062 255.109375 218.511719 254.863281 C 219.105469 254.617188 219.71875 254.429688 220.351562 254.304688 C 220.984375 254.179688 221.621094 254.117188 222.265625 254.117188 L 294.105469 254.117188 C 296.179688 254.015625 298.242188 253.816406 300.296875 253.511719 C 302.347656 253.210938 304.382812 252.808594 306.394531 252.308594 C 308.410156 251.808594 310.394531 251.210938 312.347656 250.515625 C 314.304688 249.820312 316.222656 249.03125 318.101562 248.148438 C 319.976562 247.265625 321.808594 246.296875 323.59375 245.234375 C 325.375 244.171875 327.101562 243.027344 328.773438 241.796875 C 330.445312 240.5625 332.050781 239.253906 333.59375 237.867188 C 335.136719 236.480469 336.609375 235.019531 338.007812 233.488281 C 339.410156 231.957031 340.730469 230.359375 341.972656 228.699219 C 343.21875 227.039062 344.378906 225.320312 345.453125 223.542969 C 346.53125 221.769531 347.515625 219.949219 348.414062 218.074219 C 349.3125 216.203125 350.113281 214.292969 350.824219 212.34375 C 351.535156 210.394531 352.148438 208.414062 352.667969 206.40625 C 353.183594 204.394531 353.601562 202.363281 353.917969 200.3125 C 354.238281 198.265625 354.453125 196.203125 354.570312 194.128906 C 354.6875 192.058594 354.703125 189.984375 354.617188 187.914062 C 354.703125 185.839844 354.6875 183.765625 354.570312 181.695312 C 354.453125 179.625 354.238281 177.5625 353.917969 175.511719 C 353.601562 173.460938 353.183594 171.429688 352.667969 169.421875 C 352.148438 167.414062 351.535156 165.433594 350.824219 163.484375 C 350.113281 161.535156 349.308594 159.625 348.414062 157.753906 C 347.515625 155.882812 346.527344 154.058594 345.453125 152.285156 C 344.378906 150.511719 343.21875 148.792969 341.972656 147.132812 C 340.730469 145.472656 339.40625 143.875 338.007812 142.34375 C 336.605469 140.8125 335.136719 139.351562 333.59375 137.964844 C 332.050781 136.578125 330.441406 135.269531 328.773438 134.039062 C 327.101562 132.808594 325.375 131.664062 323.589844 130.601562 C 321.808594 129.542969 319.976562 128.570312 318.097656 127.6875 C 316.21875 126.804688 314.304688 126.015625 312.347656 125.324219 C 310.394531 124.628906 308.410156 124.03125 306.394531 123.53125 C 304.378906 123.03125 302.347656 122.628906 300.292969 122.328125 C 298.242188 122.027344 296.179688 121.828125 294.105469 121.726562 L 222.265625 121.726562 C 221.621094 121.726562 220.984375 121.664062 220.351562 121.539062 C 219.71875 121.414062 219.105469 121.226562 218.511719 120.980469 C 217.914062 120.734375 217.347656 120.429688 216.8125 120.074219 C 216.277344 119.714844 215.78125 119.308594 215.324219 118.851562 C 214.871094 118.398438 214.460938 117.902344 214.105469 117.363281 C 213.746094 116.828125 213.445312 116.261719 213.199219 115.667969 C 212.949219 115.070312 212.765625 114.457031 212.640625 113.824219 C 212.511719 113.195312 212.449219 112.554688 212.449219 111.910156 C 212.449219 111.265625 212.511719 110.628906 212.640625 109.996094 C 212.765625 109.363281 212.949219 108.75 213.199219 108.152344 C 213.445312 107.558594 213.746094 106.992188 214.105469 106.457031 C 214.460938 105.921875 214.871094 105.425781 215.324219 104.96875 C 215.78125 104.515625 216.277344 104.105469 216.8125 103.75 C 217.347656 103.390625 217.914062 103.089844 218.511719 102.839844 C 219.105469 102.59375 219.71875 102.410156 220.351562 102.28125 C 220.984375 102.15625 221.621094 102.09375 222.265625 102.09375 L 294.105469 102.09375 C 295.464844 102.144531 296.816406 102.226562 298.171875 102.34375 C 299.523438 102.457031 300.875 102.609375 302.21875 102.789062 C 303.566406 102.972656 304.90625 103.1875 306.242188 103.433594 C 307.574219 103.679688 308.902344 103.960938 310.226562 104.273438 C 311.546875 104.585938 312.859375 104.929688 314.164062 105.308594 C 315.46875 105.683594 316.765625 106.09375 318.046875 106.535156 C 319.332031 106.972656 320.605469 107.445312 321.867188 107.949219 C 323.128906 108.449219 324.378906 108.984375 325.613281 109.546875 C 326.847656 110.113281 328.070312 110.707031 329.277344 111.328125 C 330.480469 111.953125 331.671875 112.605469 332.847656 113.285156 C 334.023438 113.96875 335.179688 114.679688 336.320312 115.417969 C 337.457031 116.15625 338.578125 116.921875 339.679688 117.714844 C 340.785156 118.507812 341.867188 119.328125 342.925781 120.171875 C 343.988281 121.019531 345.03125 121.890625 346.050781 122.789062 C 347.070312 123.683594 348.066406 124.605469 349.039062 125.550781 C 350.015625 126.5 350.964844 127.46875 351.890625 128.460938 C 352.820312 129.453125 353.722656 130.46875 354.597656 131.503906 C 355.476562 132.539062 356.328125 133.597656 357.152344 134.675781 C 357.976562 135.753906 358.777344 136.851562 359.546875 137.96875 C 360.320312 139.085938 361.0625 140.222656 361.78125 141.375 C 362.496094 142.53125 363.183594 143.699219 363.84375 144.886719 C 364.5 146.074219 365.128906 147.277344 365.730469 148.496094 C 366.328125 149.714844 366.898438 150.949219 367.4375 152.195312 C 367.980469 153.441406 368.488281 154.699219 368.964844 155.96875 C 369.445312 157.242188 369.890625 158.523438 370.304688 159.816406 C 370.722656 161.109375 371.105469 162.410156 371.457031 163.722656 C 371.808594 165.035156 372.125 166.355469 372.414062 167.679688 C 372.699219 169.007812 372.953125 170.339844 373.175781 171.679688 C 373.398438 173.019531 373.585938 174.367188 373.742188 175.714844 C 373.898438 177.0625 374.019531 178.414062 374.109375 179.769531 C 374.199219 181.125 374.257812 182.480469 374.28125 183.839844 C 374.304688 185.199219 374.292969 186.554688 374.25 187.914062 C 374.292969 189.269531 374.304688 190.628906 374.28125 191.984375 C 374.257812 193.34375 374.203125 194.699219 374.113281 196.054688 C 374.023438 197.410156 373.902344 198.761719 373.746094 200.113281 C 373.589844 201.460938 373.402344 202.804688 373.179688 204.144531 C 372.957031 205.484375 372.703125 206.820312 372.417969 208.148438 C 372.128906 209.476562 371.8125 210.792969 371.460938 212.105469 C 371.109375 213.417969 370.726562 214.722656 370.3125 216.015625 C 369.894531 217.308594 369.449219 218.589844 368.972656 219.859375 C 368.492188 221.132812 367.984375 222.390625 367.445312 223.636719 C 366.90625 224.882812 366.335938 226.117188 365.738281 227.335938 C 365.136719 228.554688 364.507812 229.757812 363.847656 230.945312 C 363.191406 232.132812 362.503906 233.304688 361.785156 234.457031 C 361.070312 235.609375 360.328125 236.746094 359.554688 237.863281 C 358.785156 238.984375 357.984375 240.082031 357.160156 241.160156 C 356.332031 242.238281 355.484375 243.296875 354.605469 244.332031 C 353.726562 245.371094 352.824219 246.382812 351.898438 247.375 C 350.972656 248.371094 350.023438 249.339844 349.046875 250.285156 C 348.074219 251.230469 347.074219 252.152344 346.054688 253.050781 C 345.039062 253.949219 343.996094 254.820312 342.933594 255.667969 C 341.871094 256.511719 340.789062 257.332031 339.6875 258.125 C 338.585938 258.917969 337.464844 259.6875 336.324219 260.425781 C 335.183594 261.164062 334.027344 261.875 332.851562 262.554688 C 331.679688 263.238281 330.488281 263.890625 329.28125 264.511719 C 328.074219 265.136719 326.851562 265.730469 325.617188 266.292969 C 324.382812 266.859375 323.132812 267.390625 321.871094 267.894531 C 320.609375 268.398438 319.335938 268.867188 318.050781 269.308594 C 316.765625 269.75 315.472656 270.15625 314.167969 270.535156 C 312.863281 270.910156 311.550781 271.257812 310.226562 271.570312 C 308.90625 271.882812 307.578125 272.164062 306.242188 272.410156 C 304.90625 272.65625 303.566406 272.871094 302.21875 273.054688 C 300.875 273.238281 299.523438 273.386719 298.171875 273.5 C 296.820312 273.617188 295.464844 273.699219 294.105469 273.75 Z M 153.195312 273.75 L 81.355469 273.75 C 80 273.699219 78.644531 273.617188 77.292969 273.5 C 75.9375 273.386719 74.589844 273.238281 73.242188 273.054688 C 71.898438 272.871094 70.554688 272.65625 69.222656 272.410156 C 67.886719 272.164062 66.558594 271.882812 65.234375 271.570312 C 63.914062 271.257812 62.601562 270.910156 61.296875 270.535156 C 59.992188 270.15625 58.695312 269.75 57.410156 269.308594 C 56.125 268.867188 54.851562 268.398438 53.589844 267.894531 C 52.328125 267.390625 51.082031 266.859375 49.84375 266.292969 C 48.609375 265.730469 47.390625 265.136719 46.183594 264.511719 C 44.976562 263.890625 43.785156 263.238281 42.609375 262.554688 C 41.4375 261.875 40.277344 261.164062 39.140625 260.425781 C 38 259.6875 36.878906 258.917969 35.777344 258.125 C 34.671875 257.332031 33.589844 256.511719 32.527344 255.667969 C 31.46875 254.820312 30.425781 253.949219 29.40625 253.050781 C 28.386719 252.152344 27.390625 251.230469 26.414062 250.285156 C 25.441406 249.339844 24.492188 248.371094 23.5625 247.375 C 22.636719 246.382812 21.734375 245.371094 20.859375 244.332031 C 19.980469 243.296875 19.128906 242.238281 18.304688 241.160156 C 17.480469 240.082031 16.679688 238.984375 15.910156 237.863281 C 15.136719 236.746094 14.394531 235.613281 13.675781 234.457031 C 12.960938 233.304688 12.273438 232.132812 11.613281 230.945312 C 10.957031 229.757812 10.328125 228.554688 9.726562 227.335938 C 9.128906 226.117188 8.558594 224.882812 8.019531 223.636719 C 7.476562 222.390625 6.96875 221.132812 6.492188 219.859375 C 6.015625 218.589844 5.566406 217.308594 5.152344 216.015625 C 4.738281 214.722656 4.355469 213.417969 4.003906 212.105469 C 3.652344 210.792969 3.332031 209.476562 3.046875 208.148438 C 2.757812 206.820312 2.503906 205.484375 2.285156 204.144531 C 2.0625 202.804688 1.875 201.460938 1.71875 200.113281 C 1.5625 198.761719 1.441406 197.410156 1.351562 196.054688 C 1.261719 194.699219 1.207031 193.34375 1.183594 191.984375 C 1.160156 190.628906 1.167969 189.269531 1.214844 187.914062 C 1.171875 186.554688 1.160156 185.199219 1.183594 183.839844 C 1.207031 182.480469 1.261719 181.125 1.351562 179.769531 C 1.441406 178.414062 1.566406 177.0625 1.722656 175.714844 C 1.875 174.367188 2.066406 173.019531 2.289062 171.679688 C 2.507812 170.339844 2.761719 169.007812 3.050781 167.679688 C 3.335938 166.355469 3.65625 165.035156 4.007812 163.722656 C 4.359375 162.410156 4.742188 161.109375 5.15625 159.816406 C 5.574219 158.523438 6.019531 157.242188 6.496094 155.96875 C 6.976562 154.699219 7.484375 153.441406 8.023438 152.195312 C 8.5625 150.949219 9.132812 149.714844 9.734375 148.496094 C 10.332031 147.277344 10.960938 146.074219 11.621094 144.886719 C 12.28125 143.699219 12.96875 142.53125 13.683594 141.375 C 14.398438 140.222656 15.144531 139.085938 15.914062 137.96875 C 16.6875 136.851562 17.484375 135.753906 18.3125 134.675781 C 19.136719 133.597656 19.988281 132.539062 20.863281 131.503906 C 21.742188 130.46875 22.644531 129.453125 23.570312 128.460938 C 24.5 127.46875 25.449219 126.5 26.421875 125.550781 C 27.398438 124.605469 28.394531 123.683594 29.414062 122.789062 C 30.433594 121.890625 31.472656 121.019531 32.535156 120.171875 C 33.597656 119.328125 34.679688 118.507812 35.78125 117.714844 C 36.882812 116.921875 38.003906 116.15625 39.144531 115.417969 C 40.285156 114.679688 41.441406 113.96875 42.617188 113.285156 C 43.789062 112.605469 44.980469 111.953125 46.1875 111.328125 C 47.394531 110.707031 48.613281 110.113281 49.851562 109.546875 C 51.085938 108.984375 52.335938 108.449219 53.59375 107.949219 C 54.855469 107.445312 56.128906 106.972656 57.414062 106.535156 C 58.699219 106.09375 59.992188 105.683594 61.296875 105.308594 C 62.601562 104.929688 63.917969 104.585938 65.238281 104.273438 C 66.558594 103.960938 67.886719 103.679688 69.222656 103.433594 C 70.558594 103.1875 71.898438 102.972656 73.246094 102.789062 C 74.589844 102.609375 75.9375 102.457031 77.292969 102.34375 C 78.644531 102.226562 80 102.144531 81.355469 102.09375 L 153.195312 102.09375 C 153.839844 102.09375 154.480469 102.15625 155.113281 102.28125 C 155.742188 102.410156 156.359375 102.59375 156.953125 102.839844 C 157.546875 103.089844 158.113281 103.390625 158.648438 103.75 C 159.1875 104.105469 159.683594 104.515625 160.136719 104.96875 C 160.59375 105.425781 161 105.921875 161.359375 106.457031 C 161.714844 106.992188 162.019531 107.558594 162.265625 108.152344 C 162.511719 108.75 162.699219 109.363281 162.824219 109.996094 C 162.949219 110.628906 163.011719 111.265625 163.011719 111.910156 C 163.011719 112.554688 162.949219 113.195312 162.824219 113.824219 C 162.699219 114.457031 162.511719 115.070312 162.265625 115.667969 C 162.019531 116.261719 161.714844 116.828125 161.359375 117.363281 C 161 117.902344 160.59375 118.398438 160.136719 118.851562 C 159.683594 119.308594 159.1875 119.714844 158.648438 120.074219 C 158.113281 120.429688 157.546875 120.734375 156.953125 120.980469 C 156.359375 121.226562 155.742188 121.414062 155.113281 121.539062 C 154.480469 121.664062 153.839844 121.726562 153.195312 121.726562 L 81.355469 121.726562 C 79.285156 121.828125 77.222656 122.027344 75.167969 122.328125 C 73.117188 122.628906 71.082031 123.03125 69.070312 123.53125 C 67.054688 124.03125 65.070312 124.628906 63.113281 125.324219 C 61.160156 126.015625 59.242188 126.804688 57.363281 127.6875 C 55.488281 128.570312 53.65625 129.542969 51.871094 130.601562 C 50.089844 131.664062 48.363281 132.808594 46.691406 134.039062 C 45.019531 135.269531 43.414062 136.578125 41.871094 137.964844 C 40.328125 139.351562 38.855469 140.8125 37.457031 142.34375 C 36.054688 143.875 34.734375 145.472656 33.488281 147.132812 C 32.246094 148.792969 31.085938 150.511719 30.011719 152.285156 C 28.933594 154.058594 27.949219 155.882812 27.050781 157.753906 C 26.152344 159.625 25.347656 161.535156 24.636719 163.484375 C 23.925781 165.433594 23.3125 167.410156 22.796875 169.421875 C 22.28125 171.429688 21.863281 173.460938 21.542969 175.511719 C 21.226562 177.5625 21.007812 179.625 20.890625 181.695312 C 20.777344 183.765625 20.761719 185.839844 20.847656 187.914062 C 20.761719 189.984375 20.777344 192.058594 20.890625 194.128906 C 21.007812 196.203125 21.226562 198.265625 21.542969 200.3125 C 21.863281 202.363281 22.28125 204.394531 22.796875 206.40625 C 23.3125 208.414062 23.925781 210.394531 24.636719 212.34375 C 25.347656 214.292969 26.152344 216.203125 27.050781 218.074219 C 27.945312 219.949219 28.933594 221.769531 30.007812 223.542969 C 31.085938 225.320312 32.246094 227.039062 33.488281 228.699219 C 34.734375 230.359375 36.054688 231.957031 37.453125 233.488281 C 38.855469 235.019531 40.328125 236.480469 41.871094 237.867188 C 43.414062 239.253906 45.019531 240.5625 46.691406 241.796875 C 48.359375 243.027344 50.089844 244.171875 51.871094 245.234375 C 53.65625 246.296875 55.484375 247.265625 57.363281 248.148438 C 59.242188 249.03125 61.160156 249.820312 63.113281 250.515625 C 65.070312 251.210938 67.054688 251.808594 69.066406 252.308594 C 71.082031 252.808594 73.113281 253.210938 75.167969 253.511719 C 77.222656 253.816406 79.285156 254.015625 81.355469 254.117188 L 153.195312 254.117188 C 153.839844 254.117188 154.480469 254.179688 155.113281 254.304688 C 155.742188 254.429688 156.359375 254.617188 156.953125 254.863281 C 157.546875 255.109375 158.113281 255.414062 158.648438 255.769531 C 159.1875 256.128906 159.683594 256.535156 160.136719 256.992188 C 160.59375 257.449219 161 257.945312 161.359375 258.480469 C 161.714844 259.015625 162.019531 259.582031 162.265625 260.175781 C 162.511719 260.773438 162.699219 261.386719 162.824219 262.019531 C 162.949219 262.648438 163.011719 263.289062 163.011719 263.933594 C 163.011719 264.578125 162.949219 265.214844 162.824219 265.847656 C 162.699219 266.480469 162.511719 267.09375 162.265625 267.691406 C 162.019531 268.285156 161.714844 268.851562 161.359375 269.386719 C 161 269.921875 160.59375 270.417969 160.136719 270.875 C 159.683594 271.332031 159.1875 271.738281 158.648438 272.09375 C 158.113281 272.453125 157.546875 272.757812 156.953125 273.003906 C 156.359375 273.25 155.742188 273.4375 155.113281 273.5625 C 154.480469 273.6875 153.839844 273.75 153.195312 273.75 Z M 260.375 197.730469 L 115.085938 197.730469 C 114.441406 197.730469 113.804688 197.667969 113.171875 197.539062 C 112.539062 197.414062 111.925781 197.226562 111.332031 196.980469 C 110.734375 196.734375 110.167969 196.433594 109.632812 196.074219 C 109.097656 195.714844 108.601562 195.308594 108.144531 194.855469 C 107.691406 194.398438 107.285156 193.902344 106.925781 193.367188 C 106.566406 192.832031 106.265625 192.265625 106.019531 191.667969 C 105.773438 191.074219 105.585938 190.460938 105.460938 189.828125 C 105.332031 189.195312 105.269531 188.558594 105.269531 187.914062 C 105.269531 187.269531 105.332031 186.628906 105.460938 185.996094 C 105.585938 185.363281 105.773438 184.75 106.019531 184.15625 C 106.265625 183.558594 106.566406 182.996094 106.925781 182.457031 C 107.285156 181.921875 107.691406 181.425781 108.144531 180.972656 C 108.601562 180.515625 109.097656 180.109375 109.632812 179.75 C 110.167969 179.390625 110.734375 179.089844 111.332031 178.84375 C 111.925781 178.597656 112.539062 178.410156 113.171875 178.285156 C 113.804688 178.160156 114.441406 178.09375 115.085938 178.09375 L 260.375 178.09375 C 261.019531 178.09375 261.660156 178.160156 262.289062 178.285156 C 262.921875 178.410156 263.535156 178.597656 264.132812 178.84375 C 264.726562 179.089844 265.292969 179.390625 265.828125 179.75 C 266.367188 180.109375 266.859375 180.515625 267.316406 180.972656 C 267.773438 181.425781 268.179688 181.921875 268.539062 182.457031 C 268.894531 182.996094 269.199219 183.558594 269.445312 184.15625 C 269.691406 184.75 269.878906 185.363281 270.003906 185.996094 C 270.128906 186.628906 270.191406 187.269531 270.191406 187.914062 C 270.191406 188.558594 270.128906 189.195312 270.003906 189.828125 C 269.878906 190.460938 269.691406 191.074219 269.445312 191.667969 C 269.199219 192.265625 268.894531 192.832031 268.539062 193.367188 C 268.179688 193.902344 267.773438 194.398438 267.316406 194.855469 C 266.859375 195.308594 266.367188 195.714844 265.828125 196.074219 C 265.292969 196.433594 264.726562 196.734375 264.132812 196.980469 C 263.535156 197.226562 262.921875 197.414062 262.289062 197.539062 C 261.660156 197.667969 261.019531 197.730469 260.375 197.730469 Z M 260.375 197.730469 " fill-opacity="1" fill-rule="nonzero"/></g><g clip-path="url(#de001fc0b2)"><path fill="#ff3131" d="M 217.988281 177.875 L 157.050781 177.875 L 157.050781 163.554688 C 157.066406 163.035156 157.347656 154.335938 161.355469 145.96875 C 166.488281 135.265625 175.042969 130.058594 187.511719 130.058594 C 200 130.058594 208.5625 135.148438 213.691406 145.621094 C 217.707031 153.832031 217.980469 162.359375 217.988281 162.777344 Z M 175.902344 231.765625 L 182.226562 220.8125 C 178.660156 218.914062 176.230469 215.160156 176.230469 210.839844 C 176.230469 204.613281 181.28125 199.5625 187.511719 199.5625 C 193.742188 199.5625 198.792969 204.613281 198.792969 210.839844 C 198.792969 215.160156 196.363281 218.914062 192.796875 220.8125 L 199.121094 231.765625 Z M 230.875 177.875 L 230.753906 177.875 L 230.753906 162.660156 C 230.75 162.203125 230.574219 151.359375 225.371094 140.457031 C 220.328125 129.890625 209.667969 117.296875 187.511719 117.296875 C 165.324219 117.296875 154.671875 130.121094 149.640625 140.886719 C 144.457031 151.96875 144.292969 162.972656 144.289062 163.4375 L 144.289062 177.875 L 144.144531 177.875 C 138.78125 177.875 134.398438 182.265625 134.398438 187.625 L 134.398438 247.9375 C 134.398438 253.300781 138.78125 257.6875 144.144531 257.6875 L 230.875 257.6875 C 236.238281 257.6875 240.625 253.300781 240.625 247.9375 L 240.625 187.625 C 240.625 182.265625 236.238281 177.875 230.875 177.875 " fill-opacity="1" fill-rule="nonzero"/></g></svg>