<svg xmlns="http://www.w3.org/2000/svg" xmlns:xlink="http://www.w3.org/1999/xlink" width="500" zoomAndPan="magnify" viewBox="0 0 375 374.999991" height="500" preserveAspectRatio="xMidYMid meet" version="1.0"><path fill="#ffffff" d="M 127.230469 0 C 108.78125 0 93.75 15.03125 93.75 33.480469 L 93.75 133.929688 L 25.773438 133.929688 C 11.578125 133.929688 0 145.613281 0 159.84375 L 0 268.730469 C 0 282.957031 11.578125 294.644531 25.773438 294.644531 L 93.75 294.644531 L 93.75 341.519531 C 93.75 359.96875 108.78125 375 127.230469 375 L 341.519531 375 C 359.96875 375 375 359.96875 375 341.519531 L 375 107.144531 C 375 101.039062 372.523438 95.285156 368.339844 91.03125 L 286.027344 6.730469 C 281.738281 2.335938 275.84375 0 269.808594 0 Z M 127.230469 13.394531 L 267.855469 13.394531 L 267.855469 80.355469 C 267.855469 95.074219 279.925781 107.144531 294.644531 107.144531 L 361.605469 107.144531 L 361.605469 341.519531 C 361.605469 352.75 352.75 361.605469 341.519531 361.605469 L 127.230469 361.605469 C 116 361.605469 107.144531 352.75 107.144531 341.519531 L 107.144531 294.644531 L 242.082031 294.644531 C 256.277344 294.644531 267.855469 282.957031 267.855469 268.730469 L 267.855469 159.84375 C 267.855469 145.613281 256.277344 133.929688 242.082031 133.929688 L 107.144531 133.929688 L 107.144531 33.480469 C 107.144531 22.25 116 13.394531 127.230469 13.394531 Z M 281.25 21.03125 L 352.292969 93.75 L 294.644531 93.75 C 287.109375 93.75 281.25 87.890625 281.25 80.355469 Z M 25.773438 147.320312 L 242.082031 147.320312 C 249.023438 147.320312 254.464844 152.761719 254.464844 159.84375 L 254.464844 268.730469 C 254.464844 275.808594 249.023438 281.25 242.082031 281.25 L 25.773438 281.25 C 18.832031 281.25 13.394531 275.808594 13.394531 268.730469 L 13.394531 159.84375 C 13.394531 152.761719 18.832031 147.320312 25.773438 147.320312 Z M 25.773438 147.320312 " fill-opacity="1" fill-rule="nonzero"/><path fill="#ffffff" d="M 46.875 174.105469 C 43.179688 174.105469 40.179688 177.105469 40.179688 180.804688 C 40.179688 203.125 40.179688 225.445312 40.179688 247.769531 C 40.179688 251.464844 43.179688 254.464844 46.875 254.464844 C 50.570312 254.464844 53.570312 251.464844 53.570312 247.769531 L 53.570312 227.679688 L 66.964844 227.679688 C 81.683594 227.679688 93.75 215.609375 93.75 200.894531 C 93.75 186.175781 81.683594 174.105469 66.964844 174.105469 Z M 53.570312 187.5 L 66.964844 187.5 C 74.496094 187.5 80.355469 193.359375 80.355469 200.894531 C 80.355469 208.425781 74.496094 214.285156 66.964844 214.285156 L 53.570312 214.285156 Z M 53.570312 187.5 " fill-opacity="1" fill-rule="nonzero"/><path fill="#ffffff" d="M 175.78125 174.105469 C 172.085938 174.105469 169.085938 177.105469 169.085938 180.804688 C 169.085938 184.5 172.085938 187.5 175.78125 187.5 L 194.195312 187.5 L 194.195312 247.769531 C 194.195312 251.464844 197.195312 254.464844 200.894531 254.464844 C 204.589844 254.464844 207.589844 251.464844 207.589844 247.769531 L 207.589844 187.5 L 226.003906 187.5 C 229.703125 187.5 232.699219 184.5 232.699219 180.804688 C 232.699219 177.105469 229.703125 174.105469 226.003906 174.105469 C 209.261719 174.105469 192.523438 174.105469 175.78125 174.105469 Z M 175.78125 174.105469 " fill-opacity="1" fill-rule="nonzero"/><path fill="#ffffff" d="M 113.839844 174.105469 C 110.140625 174.105469 107.144531 177.105469 107.144531 180.804688 C 107.144531 203.125 107.144531 225.445312 107.144531 247.769531 C 107.144531 251.464844 110.140625 254.464844 113.839844 254.464844 C 117.535156 254.464844 120.535156 251.464844 120.535156 247.769531 L 120.535156 227.679688 L 133.929688 227.679688 C 148.648438 227.679688 160.714844 215.609375 160.714844 200.894531 C 160.714844 186.175781 148.648438 174.105469 133.929688 174.105469 Z M 120.535156 187.5 L 133.929688 187.5 C 141.460938 187.5 147.320312 193.359375 147.320312 200.894531 C 147.320312 208.425781 141.460938 214.285156 133.929688 214.285156 L 120.535156 214.285156 Z M 120.535156 187.5 " fill-opacity="1" fill-rule="nonzero"/></svg>