<svg xmlns="http://www.w3.org/2000/svg" xmlns:xlink="http://www.w3.org/1999/xlink" width="500" zoomAndPan="magnify" viewBox="0 0 375 374.999991" height="500" preserveAspectRatio="xMidYMid meet" version="1.0"><defs><clipPath id="03e55f56a5"><path d="M 1.640625 0 L 373.640625 0 L 373.640625 375 L 1.640625 375 Z M 1.640625 0 " clip-rule="nonzero"/></clipPath></defs><g clip-path="url(#03e55f56a5)"><path fill="#ffffff" d="M 108.621094 0.421875 L 266.5 0.421875 C 295.878906 0.421875 322.609375 12.480469 342.003906 31.839844 C 361.425781 51.234375 373.480469 77.992188 373.480469 107.402344 L 373.480469 267.566406 C 373.480469 296.914062 361.425781 323.644531 342.0625 343.039062 L 342.003906 343.097656 C 322.578125 362.492188 295.847656 374.515625 266.53125 374.515625 L 108.621094 374.515625 C 79.210938 374.515625 52.453125 362.460938 33.058594 343.097656 L 32.328125 342.277344 C 13.390625 322.976562 1.640625 296.550781 1.640625 267.535156 L 1.640625 107.402344 C 1.640625 77.964844 13.664062 51.234375 33.058594 31.839844 C 52.453125 12.449219 79.179688 0.421875 108.621094 0.421875 Z M 280.230469 94.859375 L 280.445312 95.195312 L 346.203125 95.195312 C 343.554688 77.902344 335.304688 62.375 323.429688 50.472656 C 308.820312 35.859375 288.664062 26.789062 266.5 26.789062 L 239.496094 26.789062 Z M 249.820312 95.195312 L 208.871094 26.789062 L 119.0625 26.789062 L 160.496094 95.195312 Z M 129.839844 95.195312 L 89.777344 29.007812 C 75.132812 32.542969 62.011719 40.121094 51.691406 50.472656 C 39.816406 62.34375 31.597656 77.902344 28.917969 95.195312 Z M 347.117188 121.558594 L 28.003906 121.558594 L 28.003906 267.566406 C 28.003906 289.394531 36.804688 309.273438 51.019531 323.828125 L 51.691406 324.464844 C 66.304688 339.078125 86.488281 348.183594 108.621094 348.183594 L 266.5 348.183594 C 288.664062 348.183594 308.820312 339.109375 323.402344 324.527344 L 323.460938 324.464844 C 338.042969 309.882812 347.117188 289.730469 347.117188 267.566406 Z M 156.75 167.710938 L 238.433594 220.835938 C 239.742188 221.6875 240.929688 222.785156 241.871094 224.125 C 245.585938 229.511719 244.214844 236.910156 238.828125 240.625 L 157.480469 288.632812 C 155.441406 290.308594 152.824219 291.3125 149.933594 291.3125 C 143.355469 291.3125 138.027344 285.984375 138.027344 279.410156 L 138.027344 177.453125 L 138.089844 177.453125 C 138.089844 175.109375 138.789062 172.734375 140.222656 170.664062 C 143.996094 165.277344 151.394531 163.96875 156.75 167.710938 Z M 156.75 167.710938 " fill-opacity="1" fill-rule="nonzero"/></g></svg>