<svg xmlns="http://www.w3.org/2000/svg" xmlns:xlink="http://www.w3.org/1999/xlink" width="500" zoomAndPan="magnify" viewBox="0 0 375 374.999991" height="500" preserveAspectRatio="xMidYMid meet" version="1.0"><defs><clipPath id="79532eb3d5"><path d="M 15.703125 0 L 359.203125 0 L 359.203125 375 L 15.703125 375 Z M 15.703125 0 " clip-rule="nonzero"/></clipPath><clipPath id="32a93d3b1a"><path d="M 70.625 203.863281 L 183 203.863281 L 183 351.613281 L 70.625 351.613281 Z M 70.625 203.863281 " clip-rule="nonzero"/></clipPath></defs><g clip-path="url(#79532eb3d5)"><path fill="#ffffff" d="M 340.335938 196.953125 L 311.976562 196.953125 L 311.976562 69.328125 C 311.972656 68.484375 311.8125 67.675781 311.484375 66.902344 C 311.238281 66.402344 310.933594 65.941406 310.574219 65.515625 C 310.441406 65.289062 310.292969 65.074219 310.132812 64.867188 L 247.105469 1.84375 C 246.902344 1.683594 246.683594 1.535156 246.460938 1.402344 C 246.035156 1.039062 245.574219 0.734375 245.074219 0.488281 C 244.296875 0.164062 243.488281 0 242.648438 0 L 66.476562 0 C 65.847656 0 65.21875 0.03125 64.59375 0.09375 C 63.96875 0.15625 63.347656 0.25 62.730469 0.375 C 62.113281 0.496094 61.503906 0.652344 60.902344 0.835938 C 60.300781 1.015625 59.710938 1.230469 59.128906 1.46875 C 58.550781 1.710938 57.980469 1.980469 57.429688 2.277344 C 56.875 2.574219 56.335938 2.898438 55.8125 3.246094 C 55.289062 3.597656 54.785156 3.96875 54.300781 4.371094 C 53.8125 4.769531 53.347656 5.191406 52.902344 5.636719 C 52.460938 6.078125 52.039062 6.542969 51.636719 7.03125 C 51.238281 7.515625 50.863281 8.019531 50.515625 8.542969 C 50.164062 9.066406 49.84375 9.605469 49.546875 10.160156 C 49.25 10.714844 48.980469 11.28125 48.738281 11.863281 C 48.5 12.441406 48.285156 13.035156 48.101562 13.636719 C 47.917969 14.238281 47.765625 14.84375 47.644531 15.460938 C 47.519531 16.078125 47.425781 16.699219 47.363281 17.324219 C 47.300781 17.949219 47.269531 18.578125 47.269531 19.207031 L 47.269531 31.511719 L 34.082031 31.511719 C 33.480469 31.511719 32.882812 31.542969 32.285156 31.601562 C 31.6875 31.660156 31.09375 31.746094 30.507812 31.863281 C 29.917969 31.980469 29.335938 32.128906 28.761719 32.300781 C 28.1875 32.476562 27.621094 32.679688 27.070312 32.90625 C 26.515625 33.136719 25.972656 33.394531 25.441406 33.675781 C 24.914062 33.960938 24.398438 34.265625 23.898438 34.601562 C 23.402344 34.933594 22.917969 35.292969 22.457031 35.671875 C 21.992188 36.054688 21.546875 36.457031 21.125 36.878906 C 20.699219 37.304688 20.296875 37.75 19.914062 38.210938 C 19.535156 38.675781 19.179688 39.15625 18.84375 39.65625 C 18.511719 40.15625 18.203125 40.667969 17.921875 41.199219 C 17.636719 41.726562 17.378906 42.269531 17.152344 42.824219 C 16.921875 43.378906 16.71875 43.945312 16.546875 44.519531 C 16.371094 45.09375 16.226562 45.671875 16.109375 46.261719 C 15.992188 46.851562 15.902344 47.445312 15.84375 48.042969 C 15.785156 48.636719 15.757812 49.238281 15.757812 49.835938 L 15.757812 356.675781 C 15.757812 357.277344 15.785156 357.875 15.84375 358.472656 C 15.902344 359.070312 15.992188 359.660156 16.109375 360.25 C 16.226562 360.839844 16.371094 361.421875 16.546875 361.996094 C 16.71875 362.570312 16.921875 363.132812 17.152344 363.6875 C 17.378906 364.242188 17.636719 364.785156 17.921875 365.3125 C 18.203125 365.84375 18.511719 366.355469 18.84375 366.855469 C 19.179688 367.355469 19.535156 367.835938 19.914062 368.300781 C 20.296875 368.765625 20.699219 369.207031 21.125 369.632812 C 21.546875 370.058594 21.992188 370.460938 22.457031 370.839844 C 22.917969 371.222656 23.402344 371.578125 23.898438 371.910156 C 24.398438 372.246094 24.914062 372.554688 25.441406 372.835938 C 25.972656 373.117188 26.515625 373.375 27.070312 373.605469 C 27.621094 373.835938 28.1875 374.035156 28.761719 374.210938 C 29.335938 374.386719 29.917969 374.53125 30.507812 374.648438 C 31.09375 374.765625 31.6875 374.851562 32.285156 374.910156 C 32.882812 374.96875 33.480469 375 34.082031 375 L 262.136719 375 C 262.738281 375 263.335938 374.96875 263.933594 374.910156 C 264.53125 374.851562 265.125 374.765625 265.710938 374.648438 C 266.300781 374.53125 266.882812 374.386719 267.457031 374.210938 C 268.03125 374.035156 268.59375 373.835938 269.148438 373.605469 C 269.703125 373.375 270.246094 373.117188 270.777344 372.835938 C 271.304688 372.554688 271.820312 372.246094 272.316406 371.910156 C 272.816406 371.578125 273.296875 371.222656 273.761719 370.839844 C 274.226562 370.460938 274.671875 370.058594 275.09375 369.632812 C 275.519531 369.207031 275.921875 368.765625 276.300781 368.300781 C 276.683594 367.835938 277.039062 367.355469 277.375 366.855469 C 277.707031 366.355469 278.015625 365.84375 278.296875 365.3125 C 278.582031 364.785156 278.835938 364.242188 279.066406 363.6875 C 279.296875 363.132812 279.5 362.570312 279.671875 361.996094 C 279.847656 361.421875 279.992188 360.839844 280.109375 360.25 C 280.226562 359.660156 280.316406 359.070312 280.375 358.472656 C 280.433594 357.875 280.460938 357.277344 280.460938 356.675781 L 280.460938 343.488281 L 292.769531 343.488281 C 293.398438 343.488281 294.023438 343.453125 294.648438 343.390625 C 295.273438 343.328125 295.894531 343.238281 296.511719 343.113281 C 297.128906 342.988281 297.738281 342.835938 298.339844 342.652344 C 298.941406 342.46875 299.53125 342.257812 300.113281 342.015625 C 300.695312 341.777344 301.261719 341.507812 301.816406 341.210938 C 302.371094 340.914062 302.910156 340.589844 303.429688 340.242188 C 303.953125 339.890625 304.457031 339.515625 304.945312 339.117188 C 305.429688 338.71875 305.894531 338.296875 306.339844 337.851562 C 306.785156 337.40625 307.207031 336.941406 307.605469 336.457031 C 308.003906 335.972656 308.378906 335.464844 308.726562 334.945312 C 309.078125 334.421875 309.402344 333.882812 309.699219 333.328125 C 309.996094 332.773438 310.261719 332.207031 310.503906 331.625 C 310.746094 331.046875 310.957031 330.453125 311.140625 329.851562 C 311.324219 329.25 311.476562 328.640625 311.601562 328.023438 C 311.722656 327.410156 311.816406 326.789062 311.878906 326.160156 C 311.941406 325.535156 311.972656 324.910156 311.976562 324.28125 L 311.976562 304.097656 L 340.335938 304.097656 C 340.953125 304.09375 341.570312 304.0625 342.1875 304 C 342.800781 303.9375 343.414062 303.84375 344.019531 303.71875 C 344.625 303.597656 345.222656 303.445312 345.816406 303.265625 C 346.40625 303.082031 346.988281 302.875 347.558594 302.636719 C 348.128906 302.398438 348.6875 302.132812 349.234375 301.839844 C 349.777344 301.546875 350.308594 301.230469 350.820312 300.886719 C 351.335938 300.542969 351.832031 300.171875 352.308594 299.78125 C 352.789062 299.386719 353.246094 298.972656 353.683594 298.535156 C 354.121094 298.097656 354.535156 297.640625 354.929688 297.164062 C 355.320312 296.683594 355.6875 296.1875 356.03125 295.675781 C 356.378906 295.160156 356.695312 294.632812 356.988281 294.085938 C 357.28125 293.542969 357.546875 292.984375 357.785156 292.414062 C 358.019531 291.839844 358.230469 291.261719 358.410156 290.667969 C 358.59375 290.078125 358.746094 289.480469 358.867188 288.871094 C 358.988281 288.265625 359.082031 287.65625 359.144531 287.039062 C 359.207031 286.425781 359.242188 285.808594 359.242188 285.1875 L 359.242188 215.863281 C 359.242188 215.242188 359.207031 214.625 359.144531 214.011719 C 359.082031 213.394531 358.988281 212.785156 358.867188 212.179688 C 358.746094 211.570312 358.59375 210.972656 358.410156 210.382812 C 358.230469 209.789062 358.019531 209.207031 357.785156 208.636719 C 357.546875 208.066406 357.28125 207.507812 356.988281 206.964844 C 356.695312 206.417969 356.378906 205.890625 356.03125 205.375 C 355.6875 204.863281 355.320312 204.367188 354.929688 203.886719 C 354.535156 203.410156 354.121094 202.953125 353.683594 202.515625 C 353.246094 202.078125 352.789062 201.664062 352.308594 201.269531 C 351.832031 200.875 351.335938 200.507812 350.820312 200.164062 C 350.308594 199.820312 349.777344 199.5 349.234375 199.210938 C 348.6875 198.917969 348.128906 198.652344 347.558594 198.414062 C 346.988281 198.175781 346.40625 197.964844 345.816406 197.785156 C 345.222656 197.605469 344.625 197.453125 344.019531 197.328125 C 343.414062 197.207031 342.800781 197.113281 342.1875 197.050781 C 341.570312 196.988281 340.953125 196.957031 340.335938 196.953125 Z M 248.949219 21.539062 L 290.4375 63.023438 L 248.949219 63.023438 Z M 267.855469 356.675781 C 267.859375 357.050781 267.824219 357.421875 267.75 357.792969 C 267.675781 358.160156 267.570312 358.519531 267.425781 358.867188 C 267.28125 359.214844 267.105469 359.542969 266.898438 359.855469 C 266.691406 360.167969 266.453125 360.457031 266.1875 360.722656 C 265.921875 360.988281 265.632812 361.226562 265.320312 361.4375 C 265.007812 361.644531 264.675781 361.820312 264.328125 361.964844 C 263.980469 362.105469 263.625 362.214844 263.253906 362.289062 C 262.886719 362.359375 262.511719 362.394531 262.136719 362.394531 L 34.082031 362.394531 C 33.703125 362.394531 33.332031 362.359375 32.964844 362.289062 C 32.59375 362.214844 32.238281 362.105469 31.890625 361.964844 C 31.542969 361.820312 31.210938 361.644531 30.898438 361.4375 C 30.585938 361.226562 30.296875 360.988281 30.03125 360.722656 C 29.765625 360.457031 29.527344 360.167969 29.320312 359.855469 C 29.113281 359.542969 28.9375 359.214844 28.792969 358.867188 C 28.648438 358.519531 28.542969 358.160156 28.46875 357.792969 C 28.394531 357.421875 28.359375 357.050781 28.363281 356.675781 L 28.363281 49.835938 C 28.359375 49.460938 28.394531 49.089844 28.46875 48.71875 C 28.542969 48.351562 28.648438 47.992188 28.792969 47.644531 C 28.9375 47.296875 29.113281 46.96875 29.320312 46.65625 C 29.527344 46.34375 29.765625 46.054688 30.03125 45.789062 C 30.296875 45.523438 30.585938 45.285156 30.898438 45.078125 C 31.210938 44.867188 31.542969 44.691406 31.890625 44.546875 C 32.238281 44.40625 32.59375 44.296875 32.964844 44.226562 C 33.332031 44.152344 33.703125 44.117188 34.082031 44.117188 L 47.269531 44.117188 L 47.269531 324.28125 C 47.269531 324.910156 47.300781 325.535156 47.363281 326.160156 C 47.425781 326.789062 47.519531 327.410156 47.644531 328.023438 C 47.765625 328.640625 47.917969 329.25 48.101562 329.851562 C 48.285156 330.453125 48.5 331.046875 48.738281 331.625 C 48.980469 332.207031 49.25 332.773438 49.546875 333.328125 C 49.84375 333.882812 50.164062 334.421875 50.515625 334.945312 C 50.863281 335.464844 51.238281 335.972656 51.636719 336.457031 C 52.039062 336.941406 52.460938 337.40625 52.902344 337.851562 C 53.347656 338.296875 53.8125 338.71875 54.300781 339.117188 C 54.785156 339.515625 55.289062 339.890625 55.8125 340.242188 C 56.335938 340.589844 56.875 340.914062 57.429688 341.210938 C 57.980469 341.507812 58.550781 341.777344 59.128906 342.015625 C 59.710938 342.257812 60.300781 342.46875 60.902344 342.652344 C 61.503906 342.835938 62.113281 342.988281 62.730469 343.113281 C 63.347656 343.238281 63.96875 343.328125 64.59375 343.390625 C 65.21875 343.453125 65.847656 343.488281 66.476562 343.488281 L 267.855469 343.488281 Z M 299.371094 324.28125 C 299.367188 324.714844 299.324219 325.140625 299.242188 325.566406 C 299.15625 325.992188 299.027344 326.40625 298.863281 326.804688 C 298.695312 327.203125 298.492188 327.585938 298.253906 327.945312 C 298.011719 328.304688 297.738281 328.636719 297.429688 328.945312 C 297.125 329.25 296.792969 329.523438 296.433594 329.765625 C 296.070312 330.003906 295.691406 330.210938 295.292969 330.375 C 294.890625 330.542969 294.480469 330.667969 294.054688 330.753906 C 293.628906 330.839844 293.199219 330.882812 292.769531 330.882812 L 66.476562 330.882812 C 66.042969 330.882812 65.613281 330.839844 65.1875 330.753906 C 64.765625 330.667969 64.351562 330.542969 63.953125 330.375 C 63.550781 330.210938 63.171875 330.003906 62.8125 329.765625 C 62.453125 329.523438 62.117188 329.25 61.8125 328.945312 C 61.507812 328.636719 61.230469 328.304688 60.992188 327.945312 C 60.75 327.585938 60.546875 327.203125 60.378906 326.804688 C 60.214844 326.40625 60.089844 325.992188 60.003906 325.566406 C 59.917969 325.140625 59.875 324.714844 59.875 324.28125 L 59.875 19.207031 C 59.875 18.773438 59.917969 18.34375 60.003906 17.921875 C 60.089844 17.496094 60.214844 17.082031 60.378906 16.683594 C 60.546875 16.28125 60.75 15.902344 60.992188 15.542969 C 61.230469 15.183594 61.507812 14.847656 61.8125 14.542969 C 62.117188 14.238281 62.453125 13.964844 62.8125 13.722656 C 63.171875 13.480469 63.550781 13.277344 63.953125 13.113281 C 64.351562 12.945312 64.765625 12.820312 65.1875 12.734375 C 65.613281 12.648438 66.042969 12.605469 66.476562 12.605469 L 236.34375 12.605469 L 236.34375 69.328125 C 236.34375 69.742188 236.386719 70.152344 236.464844 70.558594 C 236.546875 70.964844 236.664062 71.355469 236.824219 71.738281 C 236.984375 72.121094 237.175781 72.484375 237.40625 72.828125 C 237.636719 73.171875 237.898438 73.492188 238.191406 73.785156 C 238.484375 74.078125 238.800781 74.339844 239.144531 74.566406 C 239.488281 74.796875 239.851562 74.992188 240.234375 75.152344 C 240.617188 75.308594 241.011719 75.429688 241.417969 75.507812 C 241.824219 75.589844 242.234375 75.628906 242.648438 75.628906 L 299.371094 75.628906 L 299.371094 196.953125 L 176.46875 196.953125 C 175.851562 196.957031 175.234375 196.988281 174.621094 197.050781 C 174.003906 197.113281 173.394531 197.207031 172.789062 197.328125 C 172.179688 197.453125 171.582031 197.605469 170.992188 197.785156 C 170.398438 197.964844 169.816406 198.175781 169.246094 198.414062 C 168.675781 198.652344 168.117188 198.917969 167.574219 199.210938 C 167.027344 199.5 166.5 199.820312 165.984375 200.164062 C 165.46875 200.507812 164.976562 200.875 164.496094 201.269531 C 164.019531 201.664062 163.5625 202.078125 163.125 202.515625 C 162.6875 202.953125 162.269531 203.410156 161.878906 203.886719 C 161.484375 204.367188 161.117188 204.863281 160.773438 205.375 C 160.429688 205.890625 160.109375 206.417969 159.820312 206.964844 C 159.527344 207.507812 159.261719 208.066406 159.023438 208.636719 C 158.785156 209.207031 158.574219 209.789062 158.394531 210.382812 C 158.214844 210.972656 158.0625 211.570312 157.9375 212.179688 C 157.816406 212.785156 157.722656 213.394531 157.660156 214.011719 C 157.597656 214.625 157.566406 215.242188 157.5625 215.863281 L 157.5625 285.1875 C 157.566406 285.808594 157.597656 286.425781 157.660156 287.039062 C 157.722656 287.65625 157.816406 288.265625 157.9375 288.871094 C 158.0625 289.480469 158.214844 290.078125 158.394531 290.667969 C 158.574219 291.261719 158.785156 291.839844 159.023438 292.414062 C 159.261719 292.984375 159.527344 293.542969 159.820312 294.085938 C 160.109375 294.632812 160.429688 295.160156 160.773438 295.675781 C 161.117188 296.1875 161.484375 296.683594 161.878906 297.164062 C 162.269531 297.640625 162.6875 298.097656 163.125 298.535156 C 163.5625 298.972656 164.019531 299.386719 164.496094 299.78125 C 164.976562 300.171875 165.46875 300.542969 165.984375 300.886719 C 166.5 301.230469 167.027344 301.546875 167.574219 301.839844 C 168.117188 302.132812 168.675781 302.398438 169.246094 302.636719 C 169.816406 302.875 170.398438 303.082031 170.992188 303.265625 C 171.582031 303.445312 172.179688 303.597656 172.789062 303.71875 C 173.394531 303.84375 174.003906 303.9375 174.621094 304 C 175.234375 304.0625 175.851562 304.09375 176.46875 304.097656 L 299.371094 304.097656 Z M 346.636719 285.125 C 346.636719 285.539062 346.597656 285.949219 346.515625 286.355469 C 346.4375 286.761719 346.316406 287.15625 346.160156 287.539062 C 346 287.921875 345.804688 288.285156 345.578125 288.628906 C 345.347656 288.972656 345.085938 289.289062 344.792969 289.582031 C 344.5 289.875 344.183594 290.136719 343.835938 290.367188 C 343.492188 290.597656 343.128906 290.789062 342.746094 290.949219 C 342.367188 291.105469 341.972656 291.226562 341.566406 291.308594 C 341.160156 291.386719 340.75 291.429688 340.335938 291.429688 L 176.46875 291.429688 C 176.058594 291.429688 175.648438 291.386719 175.242188 291.308594 C 174.835938 291.226562 174.441406 291.105469 174.058594 290.949219 C 173.675781 290.789062 173.3125 290.597656 172.96875 290.367188 C 172.625 290.136719 172.304688 289.875 172.015625 289.582031 C 171.722656 289.289062 171.460938 288.972656 171.230469 288.628906 C 171 288.285156 170.804688 287.921875 170.648438 287.539062 C 170.488281 287.15625 170.371094 286.761719 170.289062 286.355469 C 170.207031 285.949219 170.167969 285.539062 170.167969 285.125 L 170.167969 215.863281 C 170.167969 215.449219 170.207031 215.039062 170.289062 214.632812 C 170.371094 214.226562 170.488281 213.832031 170.648438 213.449219 C 170.804688 213.066406 171 212.703125 171.230469 212.359375 C 171.460938 212.015625 171.722656 211.699219 172.015625 211.40625 C 172.304688 211.113281 172.625 210.851562 172.96875 210.621094 C 173.3125 210.390625 173.675781 210.195312 174.058594 210.039062 C 174.441406 209.878906 174.835938 209.761719 175.242188 209.679688 C 175.648438 209.597656 176.058594 209.558594 176.46875 209.558594 L 340.335938 209.558594 C 340.75 209.558594 341.160156 209.597656 341.566406 209.679688 C 341.972656 209.761719 342.367188 209.878906 342.746094 210.039062 C 343.128906 210.195312 343.492188 210.390625 343.835938 210.621094 C 344.183594 210.851562 344.5 211.113281 344.792969 211.40625 C 345.085938 211.699219 345.347656 212.015625 345.578125 212.359375 C 345.804688 212.703125 346 213.066406 346.160156 213.449219 C 346.316406 213.832031 346.4375 214.226562 346.515625 214.632812 C 346.597656 215.039062 346.636719 215.449219 346.636719 215.863281 Z M 346.636719 285.125 " fill-opacity="1" fill-rule="nonzero"/></g><path fill="#ffffff" d="M 100.839844 107.144531 L 258.402344 107.144531 C 258.816406 107.144531 259.226562 107.101562 259.632812 107.023438 C 260.039062 106.941406 260.433594 106.820312 260.816406 106.664062 C 261.199219 106.503906 261.5625 106.3125 261.90625 106.082031 C 262.25 105.851562 262.566406 105.589844 262.859375 105.296875 C 263.152344 105.003906 263.414062 104.6875 263.644531 104.339844 C 263.875 103.996094 264.066406 103.632812 264.226562 103.253906 C 264.382812 102.871094 264.503906 102.476562 264.585938 102.070312 C 264.664062 101.664062 264.707031 101.253906 264.707031 100.839844 C 264.707031 100.425781 264.664062 100.015625 264.585938 99.609375 C 264.503906 99.203125 264.382812 98.8125 264.226562 98.429688 C 264.066406 98.046875 263.875 97.683594 263.644531 97.339844 C 263.414062 96.996094 263.152344 96.675781 262.859375 96.382812 C 262.566406 96.089844 262.25 95.828125 261.90625 95.601562 C 261.5625 95.371094 261.199219 95.175781 260.816406 95.015625 C 260.433594 94.859375 260.039062 94.738281 259.632812 94.660156 C 259.226562 94.578125 258.816406 94.539062 258.402344 94.539062 L 100.839844 94.539062 C 100.425781 94.539062 100.015625 94.578125 99.609375 94.660156 C 99.203125 94.738281 98.8125 94.859375 98.429688 95.015625 C 98.046875 95.175781 97.683594 95.371094 97.339844 95.601562 C 96.996094 95.828125 96.675781 96.089844 96.382812 96.382812 C 96.089844 96.675781 95.828125 96.996094 95.601562 97.339844 C 95.371094 97.683594 95.175781 98.046875 95.015625 98.429688 C 94.859375 98.8125 94.738281 99.203125 94.660156 99.609375 C 94.578125 100.015625 94.539062 100.425781 94.539062 100.839844 C 94.539062 101.253906 94.578125 101.664062 94.660156 102.070312 C 94.738281 102.476562 94.859375 102.871094 95.015625 103.253906 C 95.175781 103.632812 95.371094 103.996094 95.601562 104.339844 C 95.828125 104.6875 96.089844 105.003906 96.382812 105.296875 C 96.675781 105.589844 96.996094 105.851562 97.339844 106.082031 C 97.683594 106.3125 98.046875 106.503906 98.429688 106.664062 C 98.8125 106.820312 99.203125 106.941406 99.609375 107.023438 C 100.015625 107.101562 100.425781 107.144531 100.839844 107.144531 Z M 100.839844 107.144531 " fill-opacity="1" fill-rule="nonzero"/><path fill="#ffffff" d="M 100.839844 138.65625 L 258.402344 138.65625 C 258.816406 138.65625 259.226562 138.613281 259.632812 138.535156 C 260.039062 138.453125 260.433594 138.335938 260.816406 138.175781 C 261.199219 138.015625 261.5625 137.824219 261.90625 137.59375 C 262.25 137.363281 262.566406 137.101562 262.859375 136.808594 C 263.152344 136.515625 263.414062 136.199219 263.644531 135.855469 C 263.875 135.511719 264.066406 135.148438 264.226562 134.765625 C 264.382812 134.382812 264.503906 133.988281 264.585938 133.582031 C 264.664062 133.175781 264.707031 132.765625 264.707031 132.351562 C 264.707031 131.9375 264.664062 131.527344 264.585938 131.125 C 264.503906 130.71875 264.382812 130.324219 264.226562 129.941406 C 264.066406 129.558594 263.875 129.195312 263.644531 128.851562 C 263.414062 128.507812 263.152344 128.1875 262.859375 127.894531 C 262.566406 127.605469 262.25 127.34375 261.90625 127.113281 C 261.5625 126.882812 261.199219 126.6875 260.816406 126.53125 C 260.433594 126.371094 260.039062 126.253906 259.632812 126.171875 C 259.226562 126.089844 258.816406 126.050781 258.402344 126.050781 L 100.839844 126.050781 C 100.425781 126.050781 100.015625 126.089844 99.609375 126.171875 C 99.203125 126.253906 98.8125 126.371094 98.429688 126.53125 C 98.046875 126.6875 97.683594 126.882812 97.339844 127.113281 C 96.996094 127.34375 96.675781 127.605469 96.382812 127.894531 C 96.089844 128.1875 95.828125 128.507812 95.601562 128.851562 C 95.371094 129.195312 95.175781 129.558594 95.015625 129.941406 C 94.859375 130.324219 94.738281 130.71875 94.660156 131.125 C 94.578125 131.527344 94.539062 131.9375 94.539062 132.351562 C 94.539062 132.765625 94.578125 133.175781 94.660156 133.582031 C 94.738281 133.988281 94.859375 134.382812 95.015625 134.765625 C 95.175781 135.148438 95.371094 135.511719 95.601562 135.855469 C 95.828125 136.199219 96.089844 136.515625 96.382812 136.808594 C 96.675781 137.101562 96.996094 137.363281 97.339844 137.59375 C 97.683594 137.824219 98.046875 138.015625 98.429688 138.175781 C 98.8125 138.335938 99.203125 138.453125 99.609375 138.535156 C 100.015625 138.613281 100.425781 138.65625 100.839844 138.65625 Z M 100.839844 138.65625 " fill-opacity="1" fill-rule="nonzero"/><path fill="#ffffff" d="M 185.925781 163.867188 C 185.925781 163.453125 185.882812 163.042969 185.804688 162.636719 C 185.722656 162.230469 185.601562 161.835938 185.445312 161.453125 C 185.285156 161.070312 185.09375 160.707031 184.863281 160.363281 C 184.632812 160.019531 184.371094 159.703125 184.078125 159.410156 C 183.785156 159.117188 183.46875 158.855469 183.125 158.625 C 182.777344 158.394531 182.414062 158.199219 182.035156 158.042969 C 181.652344 157.882812 181.257812 157.765625 180.851562 157.683594 C 180.445312 157.601562 180.035156 157.5625 179.621094 157.5625 L 100.839844 157.5625 C 100.425781 157.5625 100.015625 157.601562 99.609375 157.683594 C 99.203125 157.765625 98.8125 157.882812 98.429688 158.042969 C 98.046875 158.199219 97.683594 158.394531 97.339844 158.625 C 96.996094 158.855469 96.675781 159.117188 96.382812 159.410156 C 96.089844 159.703125 95.828125 160.019531 95.601562 160.363281 C 95.371094 160.707031 95.175781 161.070312 95.015625 161.453125 C 94.859375 161.835938 94.738281 162.230469 94.660156 162.636719 C 94.578125 163.042969 94.539062 163.453125 94.539062 163.867188 C 94.539062 164.28125 94.578125 164.6875 94.660156 165.09375 C 94.738281 165.5 94.859375 165.894531 95.015625 166.277344 C 95.175781 166.660156 95.371094 167.023438 95.601562 167.367188 C 95.828125 167.710938 96.089844 168.03125 96.382812 168.320312 C 96.675781 168.613281 96.996094 168.875 97.339844 169.105469 C 97.683594 169.335938 98.046875 169.53125 98.429688 169.6875 C 98.8125 169.847656 99.203125 169.964844 99.609375 170.046875 C 100.015625 170.128906 100.425781 170.167969 100.839844 170.167969 L 179.621094 170.167969 C 180.035156 170.167969 180.445312 170.128906 180.851562 170.046875 C 181.257812 169.964844 181.652344 169.847656 182.035156 169.6875 C 182.414062 169.53125 182.777344 169.335938 183.125 169.105469 C 183.46875 168.875 183.785156 168.613281 184.078125 168.320312 C 184.371094 168.03125 184.632812 167.710938 184.863281 167.367188 C 185.09375 167.023438 185.285156 166.660156 185.445312 166.277344 C 185.601562 165.894531 185.722656 165.5 185.804688 165.09375 C 185.882812 164.6875 185.925781 164.28125 185.925781 163.867188 Z M 185.925781 163.867188 " fill-opacity="1" fill-rule="nonzero"/><path fill="#ffffff" d="M 205.210938 220.589844 L 197.332031 220.589844 C 196.917969 220.589844 196.507812 220.628906 196.101562 220.710938 C 195.695312 220.789062 195.300781 220.910156 194.921875 221.066406 C 194.539062 221.226562 194.175781 221.421875 193.832031 221.648438 C 193.484375 221.878906 193.167969 222.140625 192.875 222.433594 C 192.582031 222.726562 192.320312 223.046875 192.089844 223.390625 C 191.863281 223.734375 191.667969 224.097656 191.507812 224.480469 C 191.351562 224.859375 191.230469 225.253906 191.152344 225.660156 C 191.070312 226.066406 191.03125 226.476562 191.03125 226.890625 L 191.03125 274.160156 C 191.03125 274.574219 191.070312 274.984375 191.152344 275.390625 C 191.230469 275.796875 191.351562 276.1875 191.507812 276.570312 C 191.667969 276.953125 191.863281 277.316406 192.089844 277.660156 C 192.320312 278.003906 192.582031 278.324219 192.875 278.617188 C 193.167969 278.910156 193.484375 279.171875 193.832031 279.398438 C 194.175781 279.628906 194.539062 279.824219 194.921875 279.980469 C 195.300781 280.140625 195.695312 280.261719 196.101562 280.339844 C 196.507812 280.421875 196.917969 280.460938 197.332031 280.460938 L 205.210938 280.460938 C 206.191406 280.460938 207.167969 280.414062 208.144531 280.316406 C 209.121094 280.222656 210.089844 280.078125 211.050781 279.886719 C 212.011719 279.695312 212.960938 279.457031 213.898438 279.171875 C 214.839844 278.886719 215.761719 278.558594 216.667969 278.183594 C 217.574219 277.808594 218.457031 277.390625 219.320312 276.925781 C 220.1875 276.464844 221.027344 275.960938 221.84375 275.417969 C 222.65625 274.871094 223.445312 274.289062 224.203125 273.667969 C 224.960938 273.042969 225.683594 272.386719 226.378906 271.695312 C 227.070312 271 227.730469 270.273438 228.351562 269.515625 C 228.972656 268.757812 229.558594 267.972656 230.101562 267.15625 C 230.644531 266.34375 231.148438 265.503906 231.613281 264.636719 C 232.074219 263.773438 232.492188 262.886719 232.867188 261.980469 C 233.242188 261.074219 233.574219 260.152344 233.859375 259.214844 C 234.140625 258.277344 234.378906 257.328125 234.570312 256.367188 C 234.761719 255.402344 234.90625 254.433594 235.003906 253.460938 C 235.097656 252.484375 235.148438 251.503906 235.148438 250.523438 C 235.148438 249.542969 235.097656 248.566406 235.003906 247.589844 C 234.90625 246.613281 234.761719 245.644531 234.570312 244.683594 C 234.378906 243.722656 234.140625 242.773438 233.859375 241.835938 C 233.574219 240.898438 233.242188 239.972656 232.867188 239.070312 C 232.492188 238.164062 232.074219 237.277344 231.613281 236.414062 C 231.148438 235.546875 230.644531 234.707031 230.101562 233.894531 C 229.558594 233.078125 228.972656 232.292969 228.351562 231.535156 C 227.730469 230.777344 227.070312 230.050781 226.378906 229.355469 C 225.683594 228.664062 224.960938 228.003906 224.203125 227.382812 C 223.445312 226.761719 222.65625 226.179688 221.84375 225.632812 C 221.027344 225.089844 220.1875 224.585938 219.320312 224.125 C 218.457031 223.660156 217.574219 223.242188 216.667969 222.867188 C 215.761719 222.492188 214.839844 222.160156 213.898438 221.878906 C 212.960938 221.59375 212.011719 221.355469 211.050781 221.164062 C 210.089844 220.972656 209.121094 220.828125 208.144531 220.730469 C 207.167969 220.636719 206.191406 220.589844 205.210938 220.589844 Z M 205.210938 267.855469 L 203.632812 267.855469 L 203.632812 233.191406 L 205.210938 233.191406 C 205.777344 233.195312 206.34375 233.222656 206.90625 233.277344 C 207.472656 233.335938 208.03125 233.417969 208.589844 233.527344 C 209.144531 233.640625 209.695312 233.777344 210.238281 233.945312 C 210.78125 234.109375 211.3125 234.300781 211.835938 234.515625 C 212.363281 234.734375 212.875 234.976562 213.375 235.246094 C 213.875 235.511719 214.359375 235.804688 214.832031 236.121094 C 215.300781 236.4375 215.757812 236.773438 216.195312 237.132812 C 216.632812 237.492188 217.054688 237.875 217.453125 238.277344 C 217.855469 238.675781 218.234375 239.097656 218.59375 239.535156 C 218.957031 239.972656 219.292969 240.429688 219.609375 240.902344 C 219.921875 241.375 220.214844 241.859375 220.480469 242.359375 C 220.75 242.859375 220.992188 243.371094 221.207031 243.894531 C 221.425781 244.421875 221.613281 244.953125 221.78125 245.496094 C 221.945312 246.039062 222.082031 246.589844 222.191406 247.144531 C 222.304688 247.703125 222.386719 248.261719 222.441406 248.828125 C 222.496094 249.390625 222.523438 249.957031 222.523438 250.523438 C 222.523438 251.09375 222.496094 251.660156 222.441406 252.222656 C 222.386719 252.789062 222.304688 253.347656 222.191406 253.90625 C 222.082031 254.460938 221.945312 255.011719 221.78125 255.554688 C 221.613281 256.097656 221.425781 256.628906 221.207031 257.152344 C 220.992188 257.679688 220.75 258.191406 220.480469 258.691406 C 220.214844 259.191406 219.921875 259.675781 219.609375 260.148438 C 219.292969 260.621094 218.957031 261.074219 218.59375 261.515625 C 218.234375 261.953125 217.855469 262.375 217.453125 262.773438 C 217.054688 263.175781 216.632812 263.558594 216.195312 263.917969 C 215.757812 264.277344 215.300781 264.613281 214.832031 264.929688 C 214.359375 265.246094 213.875 265.539062 213.375 265.804688 C 212.875 266.074219 212.363281 266.316406 211.835938 266.53125 C 211.3125 266.75 210.78125 266.941406 210.238281 267.105469 C 209.695312 267.273438 209.144531 267.410156 208.589844 267.519531 C 208.03125 267.632812 207.472656 267.714844 206.90625 267.773438 C 206.34375 267.828125 205.777344 267.855469 205.210938 267.855469 Z M 205.210938 267.855469 " fill-opacity="1" fill-rule="nonzero"/><path fill="#ffffff" d="M 260.355469 220.589844 C 259.632812 220.589844 258.914062 220.625 258.195312 220.695312 C 257.476562 220.765625 256.761719 220.871094 256.054688 221.011719 C 255.34375 221.152344 254.644531 221.328125 253.953125 221.539062 C 253.261719 221.746094 252.582031 221.992188 251.914062 222.265625 C 251.25 222.542969 250.597656 222.851562 249.957031 223.191406 C 249.320312 223.535156 248.703125 223.90625 248.101562 224.304688 C 247.5 224.707031 246.921875 225.136719 246.363281 225.59375 C 245.804688 226.054688 245.269531 226.539062 244.757812 227.050781 C 244.25 227.558594 243.765625 228.09375 243.304688 228.652344 C 242.847656 229.210938 242.417969 229.792969 242.015625 230.390625 C 241.613281 230.992188 241.242188 231.613281 240.902344 232.25 C 240.5625 232.886719 240.253906 233.539062 239.976562 234.207031 C 239.699219 234.871094 239.457031 235.550781 239.25 236.242188 C 239.039062 236.933594 238.863281 237.636719 238.722656 238.34375 C 238.582031 239.050781 238.476562 239.765625 238.40625 240.484375 C 238.332031 241.203125 238.296875 241.925781 238.296875 242.648438 L 238.296875 258.402344 C 238.296875 259.125 238.332031 259.847656 238.40625 260.566406 C 238.476562 261.285156 238.582031 262 238.722656 262.707031 C 238.863281 263.414062 239.039062 264.117188 239.25 264.808594 C 239.457031 265.496094 239.699219 266.175781 239.976562 266.84375 C 240.253906 267.511719 240.5625 268.164062 240.902344 268.800781 C 241.242188 269.4375 241.613281 270.058594 242.015625 270.660156 C 242.417969 271.257812 242.847656 271.839844 243.304688 272.398438 C 243.765625 272.957031 244.25 273.492188 244.757812 274 C 245.269531 274.511719 245.804688 274.996094 246.363281 275.453125 C 246.921875 275.914062 247.5 276.34375 248.101562 276.746094 C 248.703125 277.144531 249.320312 277.515625 249.957031 277.859375 C 250.597656 278.199219 251.25 278.507812 251.914062 278.78125 C 252.582031 279.058594 253.261719 279.300781 253.953125 279.511719 C 254.644531 279.722656 255.34375 279.898438 256.054688 280.039062 C 256.761719 280.179688 257.476562 280.285156 258.195312 280.355469 C 258.914062 280.425781 259.632812 280.460938 260.355469 280.460938 C 261.078125 280.460938 261.800781 280.425781 262.519531 280.355469 C 263.238281 280.285156 263.953125 280.179688 264.660156 280.039062 C 265.371094 279.898438 266.070312 279.722656 266.761719 279.511719 C 267.453125 279.300781 268.132812 279.058594 268.796875 278.78125 C 269.464844 278.507812 270.117188 278.199219 270.753906 277.859375 C 271.394531 277.515625 272.011719 277.144531 272.613281 276.746094 C 273.214844 276.34375 273.792969 275.914062 274.351562 275.453125 C 274.910156 274.996094 275.445312 274.511719 275.953125 274 C 276.464844 273.492188 276.949219 272.957031 277.410156 272.398438 C 277.867188 271.839844 278.296875 271.257812 278.699219 270.660156 C 279.101562 270.058594 279.46875 269.4375 279.8125 268.800781 C 280.152344 268.164062 280.460938 267.511719 280.738281 266.84375 C 281.011719 266.175781 281.257812 265.496094 281.464844 264.808594 C 281.675781 264.117188 281.851562 263.414062 281.992188 262.707031 C 282.132812 262 282.238281 261.285156 282.308594 260.566406 C 282.378906 259.847656 282.414062 259.125 282.414062 258.402344 L 282.414062 242.648438 C 282.414062 241.925781 282.378906 241.203125 282.308594 240.484375 C 282.238281 239.765625 282.132812 239.050781 281.992188 238.34375 C 281.851562 237.636719 281.675781 236.933594 281.464844 236.242188 C 281.257812 235.550781 281.011719 234.871094 280.738281 234.207031 C 280.460938 233.539062 280.152344 232.886719 279.8125 232.25 C 279.46875 231.613281 279.101562 230.992188 278.699219 230.390625 C 278.296875 229.792969 277.867188 229.210938 277.410156 228.652344 C 276.949219 228.09375 276.464844 227.558594 275.953125 227.050781 C 275.445312 226.539062 274.910156 226.054688 274.351562 225.59375 C 273.792969 225.136719 273.214844 224.707031 272.613281 224.304688 C 272.011719 223.90625 271.394531 223.535156 270.753906 223.191406 C 270.117188 222.851562 269.464844 222.542969 268.796875 222.265625 C 268.132812 221.992188 267.453125 221.746094 266.761719 221.539062 C 266.070312 221.328125 265.371094 221.152344 264.660156 221.011719 C 263.953125 220.871094 263.238281 220.765625 262.519531 220.695312 C 261.800781 220.625 261.078125 220.589844 260.355469 220.589844 Z M 269.8125 258.402344 C 269.8125 259.023438 269.75 259.640625 269.628906 260.246094 C 269.507812 260.855469 269.328125 261.449219 269.089844 262.019531 C 268.855469 262.59375 268.5625 263.140625 268.21875 263.65625 C 267.871094 264.171875 267.480469 264.648438 267.042969 265.089844 C 266.601562 265.527344 266.125 265.917969 265.609375 266.265625 C 265.09375 266.609375 264.546875 266.898438 263.976562 267.136719 C 263.402344 267.375 262.808594 267.554688 262.203125 267.675781 C 261.59375 267.796875 260.976562 267.855469 260.355469 267.855469 C 259.738281 267.855469 259.121094 267.796875 258.511719 267.675781 C 257.902344 267.554688 257.3125 267.375 256.738281 267.136719 C 256.164062 266.898438 255.621094 266.609375 255.105469 266.265625 C 254.589844 265.917969 254.109375 265.527344 253.671875 265.089844 C 253.234375 264.648438 252.839844 264.171875 252.496094 263.65625 C 252.152344 263.140625 251.859375 262.59375 251.621094 262.019531 C 251.386719 261.449219 251.207031 260.855469 251.085938 260.246094 C 250.964844 259.640625 250.902344 259.023438 250.902344 258.402344 L 250.902344 242.648438 C 250.902344 242.027344 250.964844 241.410156 251.085938 240.800781 C 251.207031 240.195312 251.386719 239.601562 251.621094 239.027344 C 251.859375 238.457031 252.152344 237.910156 252.496094 237.394531 C 252.839844 236.878906 253.234375 236.402344 253.671875 235.960938 C 254.109375 235.523438 254.589844 235.132812 255.105469 234.785156 C 255.621094 234.441406 256.164062 234.152344 256.738281 233.914062 C 257.3125 233.675781 257.902344 233.496094 258.511719 233.375 C 259.121094 233.253906 259.738281 233.191406 260.355469 233.191406 C 260.976562 233.191406 261.59375 233.253906 262.203125 233.375 C 262.808594 233.496094 263.402344 233.675781 263.976562 233.914062 C 264.546875 234.152344 265.09375 234.441406 265.609375 234.785156 C 266.125 235.132812 266.601562 235.523438 267.042969 235.960938 C 267.480469 236.402344 267.871094 236.878906 268.21875 237.394531 C 268.5625 237.910156 268.855469 238.457031 269.089844 239.027344 C 269.328125 239.601562 269.507812 240.195312 269.628906 240.800781 C 269.75 241.410156 269.8125 242.027344 269.8125 242.648438 Z M 269.8125 258.402344 " fill-opacity="1" fill-rule="nonzero"/><path fill="#ffffff" d="M 315.503906 233.191406 L 319.476562 233.191406 C 319.886719 233.191406 320.296875 233.152344 320.703125 233.070312 C 321.109375 232.992188 321.503906 232.871094 321.886719 232.714844 C 322.269531 232.554688 322.632812 232.359375 322.976562 232.132812 C 323.320312 231.902344 323.640625 231.640625 323.929688 231.347656 C 324.222656 231.054688 324.484375 230.734375 324.714844 230.390625 C 324.945312 230.046875 325.140625 229.683594 325.296875 229.300781 C 325.457031 228.921875 325.574219 228.527344 325.65625 228.121094 C 325.738281 227.714844 325.777344 227.304688 325.777344 226.890625 C 325.777344 226.476562 325.738281 226.066406 325.65625 225.660156 C 325.574219 225.253906 325.457031 224.859375 325.296875 224.480469 C 325.140625 224.097656 324.945312 223.734375 324.714844 223.390625 C 324.484375 223.046875 324.222656 222.726562 323.929688 222.433594 C 323.640625 222.140625 323.320312 221.878906 322.976562 221.648438 C 322.632812 221.421875 322.269531 221.226562 321.886719 221.066406 C 321.503906 220.910156 321.109375 220.789062 320.703125 220.710938 C 320.296875 220.628906 319.886719 220.589844 319.476562 220.589844 L 315.503906 220.589844 C 314.523438 220.589844 313.546875 220.636719 312.570312 220.730469 C 311.59375 220.828125 310.625 220.972656 309.664062 221.164062 C 308.703125 221.355469 307.753906 221.59375 306.8125 221.878906 C 305.875 222.160156 304.953125 222.492188 304.046875 222.867188 C 303.140625 223.242188 302.257812 223.660156 301.390625 224.125 C 300.527344 224.585938 299.6875 225.089844 298.871094 225.632812 C 298.058594 226.179688 297.269531 226.761719 296.511719 227.382812 C 295.753906 228.003906 295.027344 228.664062 294.335938 229.355469 C 293.640625 230.050781 292.984375 230.777344 292.363281 231.535156 C 291.742188 232.292969 291.15625 233.078125 290.613281 233.894531 C 290.066406 234.707031 289.5625 235.546875 289.101562 236.414062 C 288.640625 237.277344 288.222656 238.164062 287.847656 239.070312 C 287.472656 239.972656 287.140625 240.898438 286.855469 241.835938 C 286.570312 242.773438 286.332031 243.722656 286.140625 244.683594 C 285.949219 245.644531 285.808594 246.613281 285.710938 247.589844 C 285.617188 248.566406 285.566406 249.542969 285.566406 250.523438 C 285.566406 251.503906 285.617188 252.484375 285.710938 253.460938 C 285.808594 254.433594 285.949219 255.402344 286.140625 256.367188 C 286.332031 257.328125 286.570312 258.277344 286.855469 259.214844 C 287.140625 260.152344 287.472656 261.074219 287.847656 261.980469 C 288.222656 262.886719 288.640625 263.773438 289.101562 264.636719 C 289.5625 265.503906 290.066406 266.34375 290.613281 267.15625 C 291.15625 267.972656 291.742188 268.757812 292.363281 269.515625 C 292.984375 270.273438 293.640625 271 294.335938 271.695312 C 295.027344 272.386719 295.753906 273.042969 296.511719 273.667969 C 297.269531 274.289062 298.058594 274.871094 298.871094 275.417969 C 299.6875 275.960938 300.527344 276.464844 301.390625 276.925781 C 302.257812 277.390625 303.140625 277.808594 304.046875 278.183594 C 304.953125 278.558594 305.875 278.886719 306.8125 279.171875 C 307.753906 279.457031 308.703125 279.695312 309.664062 279.886719 C 310.625 280.078125 311.59375 280.222656 312.570312 280.316406 C 313.546875 280.414062 314.523438 280.460938 315.503906 280.460938 L 319.316406 280.460938 C 319.730469 280.460938 320.140625 280.421875 320.546875 280.339844 C 320.953125 280.261719 321.347656 280.140625 321.730469 279.980469 C 322.113281 279.824219 322.472656 279.628906 322.820312 279.398438 C 323.164062 279.171875 323.480469 278.910156 323.773438 278.617188 C 324.066406 278.324219 324.328125 278.003906 324.558594 277.660156 C 324.789062 277.316406 324.980469 276.953125 325.140625 276.570312 C 325.296875 276.1875 325.417969 275.796875 325.5 275.390625 C 325.578125 274.984375 325.621094 274.574219 325.621094 274.160156 C 325.621094 273.746094 325.578125 273.335938 325.5 272.929688 C 325.417969 272.523438 325.296875 272.128906 325.140625 271.746094 C 324.980469 271.367188 324.789062 271.003906 324.558594 270.65625 C 324.328125 270.3125 324.066406 269.996094 323.773438 269.703125 C 323.480469 269.410156 323.164062 269.148438 322.820312 268.917969 C 322.472656 268.6875 322.113281 268.496094 321.730469 268.335938 C 321.347656 268.179688 320.953125 268.058594 320.546875 267.976562 C 320.140625 267.898438 319.730469 267.855469 319.316406 267.855469 L 315.503906 267.855469 C 314.9375 267.859375 314.371094 267.832031 313.804688 267.773438 C 313.238281 267.71875 312.675781 267.636719 312.121094 267.527344 C 311.5625 267.417969 311.011719 267.28125 310.46875 267.113281 C 309.925781 266.949219 309.390625 266.757812 308.867188 266.542969 C 308.339844 266.324219 307.828125 266.082031 307.328125 265.816406 C 306.828125 265.546875 306.339844 265.257812 305.867188 264.941406 C 305.394531 264.625 304.9375 264.289062 304.5 263.929688 C 304.058594 263.570312 303.640625 263.1875 303.238281 262.785156 C 302.835938 262.386719 302.453125 261.964844 302.09375 261.527344 C 301.734375 261.085938 301.394531 260.632812 301.078125 260.160156 C 300.765625 259.6875 300.472656 259.199219 300.203125 258.699219 C 299.9375 258.199219 299.695312 257.6875 299.476562 257.160156 C 299.257812 256.636719 299.066406 256.101562 298.902344 255.558594 C 298.738281 255.015625 298.601562 254.464844 298.488281 253.910156 C 298.378906 253.351562 298.292969 252.789062 298.238281 252.226562 C 298.183594 251.660156 298.15625 251.09375 298.15625 250.523438 C 298.15625 249.957031 298.183594 249.390625 298.238281 248.824219 C 298.292969 248.261719 298.378906 247.699219 298.488281 247.140625 C 298.601562 246.585938 298.738281 246.035156 298.902344 245.492188 C 299.066406 244.949219 299.257812 244.414062 299.476562 243.886719 C 299.695312 243.363281 299.9375 242.851562 300.203125 242.351562 C 300.472656 241.847656 300.765625 241.363281 301.078125 240.890625 C 301.394531 240.417969 301.734375 239.964844 302.09375 239.523438 C 302.453125 239.085938 302.835938 238.664062 303.238281 238.265625 C 303.640625 237.863281 304.058594 237.480469 304.5 237.121094 C 304.9375 236.761719 305.394531 236.421875 305.867188 236.109375 C 306.339844 235.792969 306.828125 235.5 307.328125 235.234375 C 307.828125 234.96875 308.339844 234.726562 308.867188 234.507812 C 309.390625 234.289062 309.925781 234.101562 310.46875 233.9375 C 311.011719 233.769531 311.5625 233.632812 312.121094 233.523438 C 312.675781 233.414062 313.238281 233.332031 313.804688 233.273438 C 314.371094 233.21875 314.9375 233.191406 315.503906 233.191406 Z M 315.503906 233.191406 " fill-opacity="1" fill-rule="nonzero"/><g clip-path="url(#32a93d3b1a)"><path fill="#ff3131" d="M 158.835938 267.660156 L 94.652344 267.660156 L 94.652344 252.578125 C 94.667969 252.027344 94.960938 242.867188 99.183594 234.054688 C 104.589844 222.777344 113.601562 217.296875 126.734375 217.296875 C 139.886719 217.296875 148.90625 222.65625 154.308594 233.6875 C 158.539062 242.335938 158.828125 251.316406 158.835938 251.757812 Z M 114.503906 324.417969 L 121.167969 312.882812 C 117.410156 310.882812 114.855469 306.929688 114.855469 302.378906 C 114.855469 295.820312 120.175781 290.5 126.734375 290.5 C 133.296875 290.5 138.617188 295.820312 138.617188 302.378906 C 138.617188 306.929688 136.058594 310.882812 132.300781 312.882812 L 138.960938 324.417969 Z M 172.410156 267.660156 L 172.277344 267.660156 L 172.277344 251.632812 C 172.273438 251.152344 172.089844 239.730469 166.609375 228.246094 C 161.296875 217.117188 150.070312 203.851562 126.734375 203.851562 C 103.367188 203.851562 92.144531 217.363281 86.847656 228.699219 C 81.386719 240.371094 81.210938 251.960938 81.210938 252.449219 L 81.210938 267.660156 L 81.054688 267.660156 C 75.410156 267.660156 70.792969 272.28125 70.792969 277.929688 L 70.792969 341.453125 C 70.792969 347.097656 75.410156 351.71875 81.054688 351.71875 L 172.410156 351.71875 C 178.054688 351.71875 182.679688 347.097656 182.679688 341.453125 L 182.679688 277.929688 C 182.679688 272.28125 178.054688 267.660156 172.410156 267.660156 " fill-opacity="1" fill-rule="nonzero"/></g></svg>