<svg xmlns="http://www.w3.org/2000/svg" xmlns:xlink="http://www.w3.org/1999/xlink" width="500" zoomAndPan="magnify" viewBox="0 0 375 374.999991" height="500" preserveAspectRatio="xMidYMid meet" version="1.0"><defs><clipPath id="21bde015c7"><path d="M 22.5 132 L 247 132 L 247 254 L 22.5 254 Z M 22.5 132 " clip-rule="nonzero"/></clipPath><clipPath id="a1c471c7af"><path d="M 264.199219 266.382812 L 337.699219 266.382812 L 337.699219 363 L 264.199219 363 Z M 264.199219 266.382812 " clip-rule="nonzero"/></clipPath></defs><path fill="#ffffff" d="M 271.261719 104.476562 C 255.957031 104.476562 243.507812 92.019531 243.507812 76.722656 L 243.507812 0.140625 L 91.417969 0.140625 C 79.925781 0.140625 70.59375 9.464844 70.59375 20.964844 L 70.59375 121.089844 L 238.765625 121.089844 C 254.519531 121.089844 267.292969 133.867188 267.292969 149.625 L 267.292969 236.789062 C 267.292969 252.546875 254.515625 265.324219 238.765625 265.324219 L 70.59375 265.324219 L 70.59375 354.179688 C 70.59375 365.679688 79.921875 375.003906 91.417969 375.003906 L 330.921875 375.003906 C 342.421875 375.003906 351.746094 365.679688 351.746094 354.179688 L 351.746094 104.476562 Z M 271.261719 104.476562 " fill-opacity="1" fill-rule="nonzero"/><path fill="#ffffff" d="M 271.261719 89.851562 L 331.199219 89.851562 L 258.128906 19.644531 L 258.128906 76.722656 C 258.128906 83.960938 264.019531 89.851562 271.261719 89.851562 Z M 271.261719 89.851562 " fill-opacity="1" fill-rule="nonzero"/><path fill="#ffffff" d="M 165.253906 178.722656 L 158.589844 178.722656 L 158.589844 193.648438 L 165.253906 193.648438 C 167.585938 193.648438 169.542969 193.40625 171.101562 192.917969 C 172.671875 192.429688 173.859375 191.632812 174.6875 190.519531 C 175.511719 189.410156 175.921875 187.953125 175.921875 186.152344 C 175.921875 184 175.285156 182.242188 174.023438 180.890625 C 172.597656 179.441406 169.679688 178.722656 165.253906 178.722656 Z M 165.253906 178.722656 " fill-opacity="1" fill-rule="nonzero"/><g clip-path="url(#21bde015c7)"><path fill="#ffffff" d="M 246.363281 229.917969 L 246.363281 156.5 C 246.363281 143.222656 235.605469 132.464844 222.335938 132.464844 L 46.910156 132.464844 C 33.632812 132.464844 22.882812 143.222656 22.882812 156.5 L 22.882812 229.917969 C 22.882812 243.191406 33.636719 253.949219 46.910156 253.949219 L 222.335938 253.949219 C 235.605469 253.945312 246.363281 243.1875 246.363281 229.917969 Z M 119.964844 219.109375 C 119.207031 219.796875 118.070312 220.140625 116.535156 220.140625 L 84.808594 220.140625 C 82.652344 220.140625 81.039062 219.65625 79.945312 218.6875 C 78.855469 217.726562 78.3125 216.425781 78.3125 214.808594 C 78.3125 214.253906 78.402344 213.742188 78.578125 213.273438 C 78.753906 212.804688 78.988281 212.371094 79.296875 211.957031 C 79.59375 211.546875 80.011719 211.023438 80.546875 210.394531 C 81.078125 209.761719 81.546875 209.210938 81.945312 208.742188 L 107.039062 178.71875 L 85.476562 178.71875 C 83.96875 178.71875 82.828125 178.382812 82.0625 177.714844 C 81.300781 177.046875 80.914062 176.171875 80.914062 175.082031 C 80.914062 173.953125 81.300781 173.035156 82.0625 172.335938 C 82.832031 171.632812 83.96875 171.285156 85.476562 171.285156 L 113.273438 171.285156 C 116.871094 171.285156 118.671875 172.964844 118.671875 176.316406 C 118.671875 177.917969 118.371094 179.199219 117.773438 180.148438 C 117.171875 181.105469 115.964844 182.652344 114.140625 184.78125 L 90.679688 212.707031 L 116.539062 212.707031 C 118.074219 212.707031 119.210938 213.023438 119.96875 213.65625 C 120.726562 214.289062 121.101562 215.171875 121.101562 216.308594 C 121.097656 217.488281 120.722656 218.421875 119.964844 219.109375 Z M 137.628906 214.941406 C 137.628906 216.964844 137.167969 218.476562 136.246094 219.472656 C 135.328125 220.472656 134.121094 220.972656 132.628906 220.972656 C 131.207031 220.972656 130.035156 220.46875 129.113281 219.457031 C 128.195312 218.445312 127.734375 216.941406 127.734375 214.941406 L 127.734375 176.453125 C 127.734375 174.453125 128.191406 172.953125 129.097656 171.953125 C 130.007812 170.953125 131.191406 170.453125 132.628906 170.453125 C 134.117188 170.453125 135.328125 170.949219 136.246094 171.9375 C 137.167969 172.921875 137.628906 174.429688 137.628906 176.453125 Z M 181.355469 197.265625 C 178.285156 199.828125 173.722656 201.113281 167.660156 201.113281 L 158.59375 201.113281 L 158.59375 214.941406 C 158.59375 216.917969 158.125 218.417969 157.195312 219.441406 C 156.261719 220.460938 155.089844 220.976562 153.664062 220.976562 C 152.175781 220.976562 150.976562 220.472656 150.0625 219.460938 C 149.152344 218.449219 148.699219 216.96875 148.699219 215.011719 L 148.699219 177.351562 C 148.699219 175.171875 149.199219 173.621094 150.199219 172.6875 C 151.199219 171.753906 152.785156 171.289062 154.964844 171.289062 L 167.664062 171.289062 C 171.417969 171.289062 174.304688 171.578125 176.328125 172.15625 C 178.328125 172.710938 180.054688 173.636719 181.507812 174.921875 C 182.964844 176.207031 184.070312 177.789062 184.828125 179.65625 C 185.582031 181.523438 185.957031 183.621094 185.957031 185.953125 C 185.953125 190.925781 184.417969 194.699219 181.355469 197.265625 Z M 181.355469 197.265625 " fill-opacity="1" fill-rule="nonzero"/></g><g clip-path="url(#a1c471c7af)"><path fill="#ff3131" d="M 321.828125 308.0625 L 279.898438 308.0625 L 279.898438 298.207031 C 279.90625 297.847656 280.097656 291.863281 282.855469 286.105469 C 286.386719 278.738281 292.277344 275.160156 300.855469 275.160156 C 309.449219 275.160156 315.34375 278.660156 318.871094 285.867188 C 321.636719 291.515625 321.824219 297.386719 321.828125 297.671875 Z M 292.867188 345.144531 L 297.21875 337.605469 C 294.765625 336.300781 293.09375 333.71875 293.09375 330.746094 C 293.09375 326.460938 296.570312 322.984375 300.855469 322.984375 C 305.140625 322.984375 308.617188 326.460938 308.617188 330.746094 C 308.617188 333.71875 306.949219 336.300781 304.492188 337.605469 L 308.84375 345.144531 Z M 330.695312 308.0625 L 330.613281 308.0625 L 330.613281 297.589844 C 330.609375 297.277344 330.488281 289.816406 326.910156 282.3125 C 323.4375 275.042969 316.101562 266.375 300.855469 266.375 C 285.589844 266.375 278.257812 275.203125 274.796875 282.609375 C 271.230469 290.234375 271.117188 297.804688 271.113281 298.125 L 271.113281 308.0625 L 271.015625 308.0625 C 267.324219 308.0625 264.308594 311.082031 264.308594 314.769531 L 264.308594 356.273438 C 264.308594 359.960938 267.324219 362.980469 271.015625 362.980469 L 330.695312 362.980469 C 334.386719 362.980469 337.40625 359.960938 337.40625 356.273438 L 337.40625 314.769531 C 337.40625 311.082031 334.386719 308.0625 330.695312 308.0625 " fill-opacity="1" fill-rule="nonzero"/></g></svg>